<?xml version="1.0" encoding="UTF-8"?>
<svg id="Layer_2" data-name="Layer 2" xmlns="http://www.w3.org/2000/svg" viewBox="0 0 545.25 75.86">
  <defs>
    <style>
      .cls-1 {
        fill: #faa32c;
      }

      .cls-2 {
        fill: #221e1f;
      }

      .cls-3 {
        fill: #211e1f;
      }

      .cls-4 {
        fill: #fafafa;
      }
    </style>
  </defs>
  <g id="logo">
    <g>
      <path class="cls-3" d="M134.75,15.03v9.73h-15.29v40.98h-11.41V24.76h-15.29v-9.73h42Z"/>
      <path class="cls-3" d="M134.01,46.78c0-3.41.52-6.4,1.57-8.96,1.05-2.56,2.43-4.69,4.13-6.4s3.67-3,5.89-3.88c2.22-.88,4.5-1.32,6.84-1.32,5.46,0,9.78,1.67,12.95,5.01,3.17,3.34,4.76,8.26,4.76,14.74,0,.63-.02,1.33-.07,2.09-.05.76-.1,1.43-.15,2.01h-24.73c.24,2.24,1.29,4.02,3.15,5.34,1.85,1.32,4.34,1.98,7.46,1.98,2,0,3.96-.18,5.89-.55,1.93-.37,3.5-.82,4.72-1.35l1.46,8.85c-.58.29-1.37.59-2.34.88-.98.29-2.06.55-3.26.77-1.2.22-2.48.4-3.84.55-1.37.15-2.73.22-4.1.22-3.46,0-6.48-.51-9.04-1.54-2.56-1.02-4.68-2.43-6.37-4.21-1.68-1.78-2.93-3.89-3.73-6.33-.8-2.44-1.21-5.07-1.21-7.9ZM159.63,42.61c-.05-.93-.21-1.83-.48-2.71-.27-.88-.68-1.66-1.24-2.34-.56-.68-1.27-1.24-2.12-1.68-.85-.44-1.92-.66-3.18-.66s-2.27.21-3.15.62c-.88.42-1.61.96-2.2,1.65-.59.68-1.04,1.48-1.35,2.38-.32.9-.55,1.82-.7,2.74h14.42Z"/>
      <path class="cls-3" d="M176.75,46.49c0-2.78.45-5.4,1.35-7.87.9-2.46,2.21-4.61,3.92-6.44,1.71-1.83,3.78-3.28,6.22-4.35,2.44-1.07,5.22-1.61,8.34-1.61,2.05,0,3.93.18,5.63.55,1.71.37,3.37.89,4.98,1.57l-2.27,8.71c-1.02-.39-2.15-.73-3.37-1.02-1.22-.29-2.59-.44-4.1-.44-3.22,0-5.62,1-7.21,3-1.59,2-2.38,4.64-2.38,7.9,0,3.46.74,6.15,2.23,8.05,1.49,1.9,4.08,2.85,7.79,2.85,1.32,0,2.73-.12,4.24-.37,1.51-.24,2.9-.63,4.17-1.17l1.54,8.93c-1.27.54-2.85,1-4.76,1.39-1.9.39-4,.59-6.29.59-3.51,0-6.54-.52-9.07-1.57-2.54-1.05-4.62-2.48-6.26-4.28-1.63-1.8-2.83-3.94-3.59-6.4-.76-2.46-1.13-5.13-1.13-8.01Z"/>
      <path class="cls-3" d="M215.16,65.74V10.71l10.9-1.76v18.44c.73-.24,1.67-.48,2.82-.69,1.15-.22,2.26-.33,3.33-.33,3.12,0,5.72.43,7.79,1.28,2.07.85,3.73,2.06,4.98,3.62,1.24,1.56,2.12,3.42,2.63,5.56.51,2.15.77,4.54.77,7.17v21.73h-10.9v-20.42c0-3.51-.45-6-1.35-7.46-.9-1.46-2.57-2.19-5.01-2.19-.98,0-1.89.09-2.74.26-.85.17-1.62.35-2.3.55v29.27h-10.9Z"/>
      <path class="cls-3" d="M273.51,38.04l7.65-10.79h11.27l-13.36,18.72c3.06,3.52,5.78,7.01,8.16,10.48s4.28,6.57,5.71,9.29h-11.69c-.4-.73-.89-1.65-1.47-2.75-.59-1.1-1.24-2.25-1.97-3.44s-1.49-2.21-2.29-3.04c-.8-.83-1.58-1.58-2.35-2.26-.74.63-1.49,1.33-2.25,2.09-.76.77-1.48,1.72-2.17,2.86s-1.36,2.28-2.02,3.4c-.66,1.12-1.25,2.17-1.76,3.14h-11.09c.61-1.2,1.42-2.64,2.43-4.31,1.01-1.67,2.11-3.4,3.31-5.17,1.2-1.78,2.5-3.5,3.89-5.18,1.4-1.68,2.77-3.25,4.11-4.72-2.39-3.4-4.69-6.67-6.9-9.81-2.21-3.14-4.39-6.24-6.55-9.3h11.78l7.57,10.79Z"/>
      <path class="cls-3" d="M333.55,65.74c-.56-1.76-1.17-3.57-1.82-5.43-.65-1.86-1.3-3.71-1.94-5.55h-19.81c-.64,1.85-1.28,3.7-1.92,5.56-.64,1.86-1.24,3.66-1.8,5.41h-11.85c1.91-5.46,3.72-10.51,5.43-15.15,1.71-4.63,3.39-9,5.03-13.1,1.64-4.1,3.25-7.99,4.84-11.67,1.59-3.68,3.24-7.28,4.96-10.79h10.82c1.67,3.51,3.31,7.11,4.93,10.79,1.62,3.68,3.25,7.57,4.89,11.67,1.64,4.1,3.32,8.46,5.04,13.1,1.71,4.64,3.53,9.68,5.44,15.15h-12.23ZM319.84,26.52c-.25.74-.63,1.74-1.12,3.01-.49,1.27-1.05,2.73-1.68,4.39-.63,1.66-1.33,3.49-2.1,5.49-.77,2-1.56,4.09-2.36,6.28h14.5c-.78-2.2-1.53-4.3-2.25-6.3-.73-2-1.42-3.84-2.07-5.5-.66-1.66-1.23-3.12-1.72-4.39-.49-1.27-.89-2.26-1.2-2.98Z"/>
      <path class="cls-3" d="M374.75,36.91c-.98-.24-2.12-.5-3.44-.77-1.32-.27-2.73-.4-4.24-.4-.68,0-1.5.06-2.45.18-.95.12-1.67.26-2.16.4v29.42h-10.9V29.3c1.95-.68,4.26-1.33,6.92-1.94,2.66-.61,5.62-.91,8.89-.91.58,0,1.29.04,2.12.11.83.07,1.66.17,2.49.29.83.12,1.66.27,2.49.44.83.17,1.54.38,2.12.62l-1.83,9Z"/>
      <path class="cls-3" d="M382.07,17.66l10.9-1.76v11.34h13.1v9.07h-13.1v13.54c0,2.29.4,4.12,1.21,5.49.8,1.37,2.43,2.05,4.87,2.05,1.17,0,2.38-.11,3.62-.33,1.24-.22,2.38-.52,3.4-.92l1.54,8.49c-1.32.54-2.78,1-4.39,1.39-1.61.39-3.59.59-5.93.59-2.98,0-5.44-.4-7.39-1.21-1.95-.81-3.51-1.93-4.68-3.37-1.17-1.44-1.99-3.18-2.45-5.23-.46-2.05-.7-4.32-.7-6.81V17.66Z"/>
      <path class="cls-3" d="M426.85,16.12c0,2-.65,3.57-1.94,4.72-1.29,1.15-2.82,1.72-4.57,1.72s-3.28-.57-4.57-1.72c-1.29-1.15-1.94-2.72-1.94-4.72s.65-3.57,1.94-4.72c1.29-1.15,2.82-1.72,4.57-1.72s3.28.57,4.57,1.72c1.29,1.15,1.94,2.72,1.94,4.72ZM425.83,65.74h-10.9V27.25h10.9v38.49Z"/>
      <path class="cls-3" d="M447.12,57.91c2,0,3.41-.19,4.24-.59.83-.39,1.24-1.15,1.24-2.27,0-.88-.54-1.65-1.61-2.3-1.07-.66-2.71-1.4-4.9-2.23-1.71-.63-3.26-1.29-4.65-1.98-1.39-.68-2.57-1.5-3.55-2.45-.98-.95-1.73-2.09-2.27-3.4-.54-1.32-.8-2.9-.8-4.76,0-3.61,1.34-6.46,4.02-8.56,2.68-2.1,6.37-3.15,11.05-3.15,2.34,0,4.58.21,6.73.62,2.15.42,3.85.87,5.12,1.35l-1.9,8.49c-1.27-.44-2.65-.83-4.13-1.17-1.49-.34-3.16-.51-5.01-.51-3.42,0-5.12.95-5.12,2.85,0,.44.07.83.22,1.17.15.34.44.67.88.99.44.32,1.04.66,1.79,1.03.76.37,1.72.77,2.89,1.22,2.39.89,4.37,1.76,5.93,2.62,1.56.86,2.79,1.79,3.7,2.79.9,1,1.54,2.11,1.9,3.32.37,1.22.55,2.63.55,4.23,0,3.8-1.43,6.67-4.28,8.62-2.85,1.95-6.89,2.92-12.11,2.92-3.42,0-6.26-.29-8.53-.88-2.27-.59-3.84-1.07-4.72-1.46l1.83-8.85c1.85.73,3.76,1.31,5.71,1.72,1.95.42,3.88.62,5.78.62Z"/>
      <path class="cls-3" d="M485.39,26.22c3.22,0,5.9.37,8.05,1.1,2.15.73,3.87,1.78,5.16,3.15,1.29,1.37,2.21,3.02,2.74,4.98.54,1.95.8,4.12.8,6.51v22.68c-1.56.34-3.73.74-6.51,1.21-2.78.46-6.15.69-10.1.69-2.49,0-4.75-.22-6.77-.66-2.03-.44-3.77-1.16-5.23-2.16-1.46-1-2.59-2.31-3.37-3.92-.78-1.61-1.17-3.59-1.17-5.93s.45-4.15,1.35-5.71c.9-1.56,2.11-2.8,3.62-3.73,1.51-.93,3.24-1.6,5.2-2.01,1.95-.41,3.98-.62,6.07-.62,1.41,0,2.67.06,3.77.18,1.1.12,1.99.28,2.67.48v-1.02c0-1.85-.56-3.34-1.68-4.46-1.12-1.12-3.07-1.68-5.85-1.68-1.86,0-3.68.14-5.49.4-1.8.27-3.37.65-4.68,1.13l-1.39-8.78c.63-.19,1.43-.4,2.38-.62.95-.22,1.99-.41,3.11-.59,1.12-.17,2.3-.32,3.55-.44,1.24-.12,2.5-.18,3.77-.18ZM486.27,58.13c1.07,0,2.1-.02,3.07-.07.97-.05,1.76-.12,2.34-.22v-8.27c-.44-.1-1.1-.19-1.98-.29-.88-.1-1.68-.15-2.41-.15-1.03,0-1.99.06-2.89.18-.9.12-1.7.35-2.38.7-.68.34-1.22.81-1.61,1.39-.39.59-.59,1.32-.59,2.2,0,1.71.57,2.89,1.72,3.55,1.14.66,2.72.99,4.72.99Z"/>
      <path class="cls-3" d="M512.02,28.56c1.85-.54,4.24-1.04,7.17-1.5,2.93-.46,6-.7,9.22-.7s5.99.43,8.16,1.28c2.17.85,3.89,2.06,5.16,3.62,1.27,1.56,2.17,3.42,2.71,5.56.54,2.15.8,4.54.8,7.17v21.73h-10.9v-20.42c0-3.51-.46-6-1.39-7.46-.93-1.46-2.66-2.19-5.2-2.19-.78,0-1.61.04-2.49.11-.88.07-1.66.16-2.34.26v29.71h-10.9V28.56Z"/>
      <path class="cls-1" d="M65.88,0H9.98C4.47,0,0,4.47,0,9.98v55.9c0,5.51,4.47,9.98,9.98,9.98h55.9c5.51,0,9.98-4.47,9.98-9.98V9.98c0-5.51-4.47-9.98-9.98-9.98ZM59.09,29.07h-6.6l-9.02,9.02,8.71,8.71h6.91v12.3h-12.3v-6.6l-8.87-8.87-8.86,8.86v6.6h-12.3v-12.3h6.9l8.71-8.71-9.02-9.02h-6.6v-12.3h12.3v6.91l8.86,8.86,8.87-8.87v-6.9h12.3v12.3Z"/>
      <path class="cls-2" d="M59.09,29.07v-12.3h-12.3v6.9l-8.87,8.87-8.86-8.86v-6.91h-12.3v12.3h6.6l9.02,9.02-8.71,8.71h-6.9v12.3h12.3v-6.6l8.86-8.86,8.87,8.87v6.6h12.3v-12.3h-6.91l-8.71-8.71,9.02-9.02h6.6ZM37.93,40.55h0s-11.07,11.07-11.07,11.07c.13.41.21.85.21,1.3,0,2.31-1.87,4.18-4.18,4.18s-4.18-1.87-4.18-4.18,1.87-4.18,4.18-4.18c.48,0,.95.09,1.38.24l11.05-11.05-11.27-11.27c-.37.11-.75.16-1.15.16-2.31,0-4.18-1.87-4.18-4.18s1.87-4.18,4.18-4.18,4.18,1.87,4.18,4.18c0,.54-.1,1.05-.29,1.52l13.77,13.77-2.62,2.62Z"/>
      <path class="cls-4" d="M37.93,40.55l2.62-2.62-13.77-13.77c.18-.47.29-.98.29-1.52,0-2.31-1.87-4.18-4.18-4.18s-4.18,1.87-4.18,4.18,1.87,4.18,4.18,4.18c.4,0,.79-.06,1.15-.16l11.27,11.27-11.05,11.05c-.43-.15-.89-.24-1.38-.24-2.31,0-4.18,1.87-4.18,4.18s1.87,4.18,4.18,4.18,4.18-1.87,4.18-4.18c0-.45-.07-.89-.21-1.3l11.07-11.07h0Z"/>
    </g>
  </g>
</svg>