<?xml version="1.0" encoding="utf-8"?>
<!-- Generator: Adobe Illustrator 25.0.1, SVG Export Plug-In . SVG Version: 6.00 Build 0)  -->
<svg version="1.1" id="livetype" xmlns="http://www.w3.org/2000/svg" xmlns:xlink="http://www.w3.org/1999/xlink" x="0px" y="0px"
	 viewBox="0 0 156.1 40" style="enable-background:new 0 0 156.1 40;" xml:space="preserve">
<style type="text/css">
	.st0{fill:#FFFFFF;}
</style>
<g>
	<g>
		<path class="st0" d="M146.6,0H9.5C9.2,0,8.8,0,8.4,0C8.1,0,7.8,0,7.5,0c-0.7,0-1.3,0.1-2,0.2C4.9,0.3,4.2,0.5,3.6,0.8
			C3,1.1,2.5,1.5,2,2C1.5,2.5,1.1,3,0.8,3.6C0.5,4.2,0.3,4.9,0.2,5.5C0.1,6.2,0,6.9,0,7.5c0,0.3,0,0.6,0,0.9v23.1c0,0.3,0,0.6,0,0.9
			c0,0.7,0.1,1.3,0.2,2c0.1,0.7,0.3,1.3,0.6,1.9C1.1,37,1.5,37.5,2,38c0.5,0.5,1,0.9,1.6,1.2c0.6,0.3,1.2,0.5,1.9,0.6
			c0.7,0.1,1.3,0.2,2,0.2c0.3,0,0.6,0,0.9,0c0.4,0,0.7,0,1.1,0h137c0.4,0,0.7,0,1.1,0c0.3,0,0.6,0,0.9,0c0.7,0,1.3-0.1,2-0.2
			c0.7-0.1,1.3-0.3,1.9-0.6c0.6-0.3,1.1-0.7,1.6-1.2c0.5-0.5,0.9-1,1.2-1.6c0.3-0.6,0.5-1.2,0.6-1.9c0.1-0.7,0.2-1.3,0.2-2
			c0-0.3,0-0.6,0-0.9c0-0.4,0-0.7,0-1.1V9.5c0-0.4,0-0.7,0-1.1c0-0.3,0-0.6,0-0.9c0-0.7-0.1-1.3-0.2-2c-0.1-0.7-0.3-1.3-0.6-1.9
			c-0.6-1.2-1.6-2.2-2.8-2.8c-0.6-0.3-1.2-0.5-1.9-0.6c-0.7-0.1-1.3-0.2-2-0.2c-0.3,0-0.6,0-0.9,0C147.3,0,146.9,0,146.6,0L146.6,0z
			"/>
		<path class="st0" d="M8.4,39.1c-0.3,0-0.6,0-0.9,0c-0.6,0-1.3-0.1-1.9-0.2c-0.6-0.1-1.1-0.3-1.7-0.5c-0.5-0.3-1-0.6-1.4-1
			c-0.4-0.4-0.8-0.9-1-1.4c-0.3-0.5-0.4-1.1-0.5-1.7c-0.1-0.6-0.2-1.2-0.2-1.9c0-0.2,0-0.9,0-0.9V8.4c0,0,0-0.7,0-0.9
			c0-0.6,0.1-1.3,0.2-1.9C1.1,5.1,1.3,4.5,1.6,4c0.3-0.5,0.6-1,1-1.4C3,2.2,3.5,1.9,4,1.6c0.5-0.3,1.1-0.4,1.7-0.5
			c0.6-0.1,1.2-0.2,1.9-0.2l0.9,0h139.2l0.9,0c0.6,0,1.2,0.1,1.9,0.2c0.6,0.1,1.1,0.3,1.7,0.5c1,0.5,1.9,1.4,2.4,2.4
			c0.3,0.5,0.4,1.1,0.5,1.6c0.1,0.6,0.2,1.3,0.2,1.9c0,0.3,0,0.6,0,0.9c0,0.4,0,0.7,0,1.1v20.9c0,0.4,0,0.7,0,1.1c0,0.3,0,0.6,0,0.9
			c0,0.6-0.1,1.2-0.2,1.9c-0.1,0.6-0.3,1.1-0.5,1.7c-0.3,0.5-0.6,1-1,1.4c-0.4,0.4-0.9,0.8-1.4,1c-0.5,0.3-1.1,0.5-1.7,0.5
			c-0.6,0.1-1.2,0.2-1.9,0.2c-0.3,0-0.6,0-0.9,0l-1.1,0L8.4,39.1z"/>
	</g>
	<g>
		<path d="M46.1,30.5v-9.1h-0.1l-3.7,9h-1.4l-3.8-9h-0.1v9.1h-1.8V18.1h2.2l4,9.8h0.1l4-9.8h2.2v12.4H46.1z"/>
		<path d="M49.4,27.9c0-1.6,1.2-2.5,3.4-2.7l2.5-0.1v-0.7c0-1-0.7-1.6-1.8-1.6c-0.9-0.1-1.7,0.4-1.9,1.3h-1.7
			c0.1-1.6,1.6-2.8,3.7-2.8c2.2,0,3.6,1.2,3.6,3v6.2h-1.8V29h0c-0.6,1-1.7,1.7-2.9,1.6c-1.5,0.1-2.9-1-3-2.5
			C49.4,28.1,49.4,28,49.4,27.9z M55.2,27.1v-0.7L53,26.5c-1.1,0.1-1.7,0.6-1.7,1.3c0,0.8,0.7,1.3,1.7,1.3
			C54.1,29.3,55.2,28.4,55.2,27.1C55.2,27.1,55.2,27.1,55.2,27.1L55.2,27.1z"/>
		<path d="M64.9,24.6c-0.2-1-1.1-1.8-2.1-1.7c-1.4,0-2.4,1.2-2.4,3.1c0,1.9,1,3.1,2.4,3.1c1,0.1,2-0.6,2.1-1.6h1.8
			c-0.2,1.9-2,3.4-3.9,3.2c-2.6,0-4.3-1.8-4.3-4.6c0-2.8,1.7-4.6,4.3-4.6c2-0.2,3.7,1.3,3.9,3.2L64.9,24.6z"/>
		<path d="M78.8,27.1H74l-1.1,3.4h-2l4.5-12.4h2.1l4.5,12.4h-2L78.8,27.1z M74.5,25.6h3.8l-1.8-5.4h-0.1L74.5,25.6z"/>
		<path d="M91.6,26c0,2.8-1.5,4.6-3.8,4.6C86.7,30.7,85.6,30,85,29h0v4.5h-1.9v-12h1.8v1.5h0c0.6-1,1.7-1.6,2.9-1.6
			C90.1,21.3,91.6,23.2,91.6,26z M89.7,26c0-1.8-0.9-3-2.4-3c-1.4,0-2.4,1.2-2.4,3c0,1.8,1,3,2.4,3C88.8,29,89.7,27.8,89.7,26z"/>
		<path d="M101.6,26c0,2.8-1.5,4.6-3.8,4.6C96.6,30.7,95.5,30,95,29h0v4.5h-1.9v-12h1.8v1.5h0c0.6-1,1.7-1.6,2.9-1.6
			C100.1,21.3,101.6,23.2,101.6,26z M99.7,26c0-1.8-0.9-3-2.4-3c-1.4,0-2.4,1.2-2.4,3c0,1.8,1,3,2.4,3C98.7,29,99.7,27.8,99.7,26z"
			/>
		<path d="M108.2,27c0.1,1.2,1.3,2,3,2c1.6,0,2.7-0.8,2.7-1.9c0-1-0.7-1.5-2.3-1.9l-1.6-0.4c-2.3-0.6-3.3-1.6-3.3-3.3
			c0-2.1,1.9-3.6,4.5-3.6c2.6,0,4.4,1.5,4.5,3.6h-1.9c-0.1-1.2-1.1-2-2.6-2s-2.5,0.8-2.5,1.9c0,0.9,0.7,1.4,2.3,1.8l1.4,0.3
			c2.5,0.6,3.6,1.6,3.6,3.4c0,2.3-1.9,3.8-4.8,3.8c-2.8,0-4.6-1.4-4.7-3.7L108.2,27z"/>
		<path d="M119.8,19.3v2.1h1.7v1.5h-1.7v5c0,0.8,0.3,1.1,1.1,1.1c0.2,0,0.4,0,0.6,0v1.5c-0.3,0.1-0.7,0.1-1,0.1
			c-1.8,0-2.5-0.7-2.5-2.4v-5.2h-1.3v-1.5h1.3v-2.1H119.8z"/>
		<path d="M122.5,26c0-2.8,1.7-4.6,4.3-4.6c2.6,0,4.3,1.8,4.3,4.6c0,2.9-1.7,4.6-4.3,4.6C124.2,30.6,122.5,28.8,122.5,26z M129.2,26
			c0-2-0.9-3.1-2.4-3.1s-2.4,1.2-2.4,3.1c0,2,0.9,3.1,2.4,3.1S129.2,27.9,129.2,26L129.2,26z"/>
		<path d="M132.6,21.4h1.8V23h0c0.2-1,1.2-1.7,2.2-1.6c0.2,0,0.4,0,0.6,0.1v1.7c-0.3-0.1-0.6-0.1-0.8-0.1c-1,0-1.9,0.8-1.9,1.8
			c0,0.1,0,0.2,0,0.3v5.4h-1.9L132.6,21.4z"/>
		<path d="M145.8,27.8c-0.2,1.6-1.9,2.8-3.9,2.8c-2.6,0-4.3-1.8-4.3-4.6c0-2.8,1.6-4.7,4.2-4.7c2.5,0,4.1,1.7,4.1,4.5v0.6h-6.4v0.1
			c-0.1,1.3,0.8,2.4,2.1,2.6c0.1,0,0.2,0,0.3,0c0.9,0.1,1.8-0.4,2.1-1.3L145.8,27.8z M139.6,25.1h4.5c0.1-1.2-0.9-2.2-2.1-2.3
			c-0.1,0-0.1,0-0.2,0C140.6,22.8,139.6,23.8,139.6,25.1C139.6,25.1,139.6,25.1,139.6,25.1L139.6,25.1z"/>
	</g>
	<g>
		<g id="_Group_">
			<g id="_Group_2">
				<g id="_Group_3">
					<path id="_Path_" d="M25,19.9c0-1.8,0.9-3.4,2.5-4.3c-1-1.4-2.5-2.2-4.2-2.2c-1.7-0.2-3.4,1-4.3,1c-0.9,0-2.3-1-3.8-1
						c-1.9,0.1-3.7,1.1-4.7,2.8c-2,3.5-0.5,8.6,1.4,11.4c1,1.4,2.1,2.9,3.6,2.9c1.4-0.1,2-0.9,3.7-0.9c1.7,0,2.2,0.9,3.7,0.9
						c1.5,0,2.5-1.4,3.5-2.8c0.7-1,1.2-2.1,1.6-3.2C26.2,23.7,25,21.9,25,19.9z"/>
					<path id="_Path_2" d="M22.2,11.5c0.8-1,1.3-2.3,1.2-3.6C22,8,20.8,8.6,20,9.6c-0.8,1-1.3,2.2-1.2,3.5
						C20.1,13.1,21.3,12.5,22.2,11.5z"/>
				</g>
			</g>
		</g>
		<g id="_Group_4">
			<g>
				<path d="M37.8,8.7c1.5-0.1,2.7,1,2.8,2.4c0,0.2,0,0.3,0,0.5c0,1.9-1,3-2.8,3h-2.2v-6H37.8z M36.6,13.9h1.1c1,0.1,1.9-0.7,2-1.8
					c0-0.1,0-0.3,0-0.4c0.1-1-0.6-2-1.6-2.1c-0.1,0-0.2,0-0.4,0h-1.1V13.9z"/>
				<path d="M41.7,12.4c-0.1-1.2,0.7-2.2,1.9-2.3c1.2-0.1,2.2,0.7,2.3,1.9c0,0.1,0,0.3,0,0.4c0.1,1.2-0.7,2.2-1.9,2.3
					c-1.2,0.1-2.2-0.7-2.3-1.9C41.7,12.7,41.7,12.6,41.7,12.4z M45,12.4c0-1-0.4-1.5-1.2-1.5c-0.8,0-1.2,0.6-1.2,1.5
					c0,1,0.4,1.6,1.2,1.6C44.6,14,45,13.4,45,12.4L45,12.4z"/>
				<path d="M51.6,14.7h-0.9l-0.9-3.3h-0.1l-0.9,3.3h-0.9l-1.2-4.5h0.9l0.8,3.4h0.1l0.9-3.4h0.9l0.9,3.4h0.1l0.8-3.4h0.9L51.6,14.7z
					"/>
				<path d="M53.9,10.2h0.9v0.7h0.1c0.2-0.5,0.8-0.8,1.3-0.8c0.8-0.1,1.5,0.5,1.6,1.4c0,0.1,0,0.2,0,0.3v2.9h-0.9V12
					c0-0.7-0.3-1.1-1-1.1c-0.6,0-1.1,0.4-1.1,1c0,0.1,0,0.1,0,0.2v2.6h-0.9L53.9,10.2z"/>
				<path d="M59.1,8.4H60v6.3h-0.9V8.4z"/>
				<path d="M61.2,12.4c-0.1-1.2,0.7-2.2,1.9-2.3c1.2-0.1,2.2,0.7,2.3,1.9c0,0.1,0,0.3,0,0.4c0.1,1.2-0.7,2.2-1.9,2.3
					c-1.2,0.1-2.2-0.7-2.3-1.9C61.2,12.7,61.2,12.6,61.2,12.4z M64.6,12.4c0-1-0.4-1.5-1.2-1.5c-0.8,0-1.2,0.6-1.2,1.5
					c0,1,0.4,1.6,1.2,1.6C64.1,14,64.6,13.4,64.6,12.4z"/>
				<path d="M66.4,13.4c0-0.8,0.6-1.3,1.7-1.3l1.2-0.1v-0.4c0-0.5-0.3-0.7-0.9-0.7c-0.5,0-0.8,0.2-0.9,0.5h-0.9
					c0.1-0.8,0.8-1.3,1.8-1.3c1.1,0,1.8,0.6,1.8,1.5v3.1h-0.9v-0.6h-0.1c-0.3,0.5-0.8,0.7-1.4,0.7c-0.7,0.1-1.4-0.5-1.5-1.2
					C66.4,13.5,66.4,13.5,66.4,13.4z M69.3,13v-0.4l-1.1,0.1c-0.6,0-0.9,0.3-0.9,0.6c0,0.4,0.4,0.6,0.8,0.6
					C68.7,14.1,69.2,13.7,69.3,13C69.3,13.1,69.3,13.1,69.3,13z"/>
				<path d="M71.3,12.4c0-1.4,0.7-2.3,1.9-2.3c0.6,0,1.1,0.3,1.4,0.8h0.1V8.4h0.9v6.3h-0.9V14h-0.1c-0.3,0.5-0.8,0.8-1.4,0.8
					C72.1,14.8,71.3,13.9,71.3,12.4z M72.3,12.4c0,1,0.5,1.5,1.2,1.5c0.7,0,1.2-0.6,1.2-1.5c0-0.9-0.5-1.5-1.2-1.5
					C72.7,10.9,72.3,11.5,72.3,12.4L72.3,12.4z"/>
				<path d="M79.2,12.4c-0.1-1.2,0.7-2.2,1.9-2.3c1.2-0.1,2.2,0.7,2.3,1.9c0,0.1,0,0.3,0,0.4c0.1,1.2-0.7,2.2-1.9,2.3
					c-1.2,0.1-2.2-0.7-2.3-1.9C79.2,12.7,79.2,12.6,79.2,12.4z M82.6,12.4c0-1-0.4-1.5-1.2-1.5c-0.8,0-1.2,0.6-1.2,1.5
					c0,1,0.4,1.6,1.2,1.6C82.1,14,82.6,13.4,82.6,12.4L82.6,12.4z"/>
				<path d="M84.7,10.2h0.9v0.7h0.1c0.2-0.5,0.8-0.8,1.3-0.8c0.8-0.1,1.5,0.5,1.6,1.4c0,0.1,0,0.2,0,0.3v2.9h-0.9V12
					c0-0.7-0.3-1.1-1-1.1c-0.6,0-1.1,0.4-1.1,1c0,0.1,0,0.1,0,0.2v2.6h-0.9V10.2z"/>
				<path d="M93.5,9.1v1.1h1V11h-1v2.3c0,0.5,0.2,0.7,0.6,0.7c0.1,0,0.2,0,0.3,0v0.7c-0.2,0-0.3,0-0.5,0c-1,0-1.4-0.3-1.4-1.2V11
					h-0.7v-0.7h0.7V9.1H93.5z"/>
				<path d="M95.7,8.4h0.9v2.5h0.1c0.2-0.5,0.8-0.9,1.4-0.8c0.8,0,1.5,0.6,1.6,1.4c0,0.1,0,0.2,0,0.3v2.9h-0.9V12
					c0-0.7-0.3-1.1-1-1.1c-0.6,0-1.1,0.4-1.1,1c0,0.1,0,0.1,0,0.2v2.6h-0.9L95.7,8.4z"/>
				<path d="M104.8,13.5c-0.2,0.8-1.1,1.4-2,1.3c-1.1,0-2.1-0.9-2.1-2c0-0.1,0-0.2,0-0.3c-0.2-1.1,0.6-2.2,1.8-2.3
					c0.1,0,0.2,0,0.3,0c1.3,0,2,0.9,2,2.3v0.3h-3.2v0c-0.1,0.7,0.4,1.2,1.1,1.3c0,0,0.1,0,0.1,0c0.4,0.1,0.9-0.2,1.1-0.5L104.8,13.5
					z M101.6,12h2.3c0-0.6-0.4-1.1-1-1.2c0,0-0.1,0-0.1,0C102.2,10.9,101.6,11.4,101.6,12C101.6,12,101.6,12,101.6,12L101.6,12z"/>
			</g>
		</g>
	</g>
</g>
</svg>
