<?xml version="1.0" encoding="utf-8"?>
<!-- Generator: Adobe Illustrator 25.0.1, SVG Export Plug-In . SVG Version: 6.00 Build 0)  -->
<svg version="1.1" id="Layer_1" xmlns="http://www.w3.org/2000/svg" xmlns:xlink="http://www.w3.org/1999/xlink" x="0px" y="0px"
	 viewBox="0 0 156 40" style="enable-background:new 0 0 156 40;" xml:space="preserve">
<style type="text/css">
	.st0{fill:#FFFFFF;}
	.st1{fill:#F25022;}
	.st2{fill:#7FBA00;}
	.st3{fill:#00A4EF;}
	.st4{fill:#FFB900;}
</style>
<g>
	<path class="st0" d="M8.5,39.2c-4.3,0-7.8-3.5-7.8-7.8v-23c0-4.3,3.5-7.8,7.8-7.8h139c4.3,0,7.8,3.5,7.8,7.8v23
		c0,4.3-3.5,7.8-7.8,7.8H8.5z"/>
	<path d="M147.5,1.5c3.9,0,7,3.1,7,7v23c0,3.9-3.1,7-7,7H8.5c-3.9,0-7-3.1-7-7v-23c0-3.9,3.1-7,7-7H147.5 M147.5,0H8.5
		C3.8,0,0,3.8,0,8.5v23C0,36.2,3.8,40,8.5,40h139c4.7,0,8.5-3.8,8.5-8.5v-23C156,3.8,152.2,0,147.5,0L147.5,0z"/>
</g>
<g id="Layer_1_2_">
	<rect x="27.8" y="8" class="st1" width="11.5" height="11.5"/>
	<rect x="40.5" y="8" class="st2" width="11.5" height="11.5"/>
	<rect x="27.8" y="20.7" class="st3" width="11.5" height="11.5"/>
	<rect x="40.5" y="20.7" class="st4" width="11.5" height="11.5"/>
	<path d="M74.3,21c0-0.3,0.1-0.6,0.4-0.9c0.2-0.2,0.5-0.3,0.9-0.3c0.4,0,0.7,0.1,0.9,0.4c0.2,0.2,0.4,0.5,0.4,0.8
		c0,0.3-0.1,0.6-0.4,0.8c-0.2,0.2-0.5,0.3-0.9,0.3s-0.6-0.1-0.9-0.3C74.4,21.6,74.3,21.4,74.3,21 M76.6,32.3h-2.1v-8.7h2.1V32.3z"/>
	<path d="M82.8,30.8c0.3,0,0.6-0.1,1-0.2c0.4-0.1,0.7-0.3,1-0.6v1.9c-0.3,0.2-0.7,0.3-1.1,0.4s-0.9,0.2-1.4,0.2
		c-1.3,0-2.3-0.4-3.1-1.2S78,29.4,78,28.2c0-1.4,0.4-2.6,1.2-3.5s2-1.4,3.5-1.4c0.4,0,0.8,0.1,1.2,0.2s0.7,0.2,0.9,0.3v2
		c-0.3-0.2-0.6-0.4-1-0.5c-0.3-0.1-0.7-0.2-1-0.2c-0.8,0-1.5,0.3-2,0.8c-0.5,0.5-0.7,1.2-0.7,2.1c0,0.9,0.2,1.6,0.7,2.1
		C81.3,30.5,82,30.8,82.8,30.8"/>
	<path d="M90.7,23.4c0.2,0,0.3,0,0.4,0c0.1,0,0.2,0.1,0.3,0.1v2.1c-0.1-0.1-0.3-0.2-0.5-0.2s-0.5-0.1-0.8-0.1
		c-0.5,0-0.9,0.2-1.3,0.6c-0.3,0.4-0.5,1.1-0.5,2v4.4h-2.1v-8.7h2.1v1.4h0c0.2-0.5,0.5-0.9,0.9-1.1C89.7,23.5,90.2,23.4,90.7,23.4"
		/>
	<path d="M91.6,28c0-1.4,0.4-2.6,1.2-3.4c0.8-0.8,2-1.3,3.4-1.3c1.4,0,2.4,0.4,3.2,1.2c0.8,0.8,1.2,1.9,1.2,3.3
		c0,1.4-0.4,2.5-1.2,3.4c-0.8,0.8-1.9,1.3-3.3,1.3c-1.3,0-2.4-0.4-3.2-1.2C92,30.5,91.6,29.4,91.6,28 M93.7,28
		c0,0.9,0.2,1.6,0.6,2.1c0.4,0.5,1,0.7,1.8,0.7c0.7,0,1.3-0.2,1.7-0.7c0.4-0.5,0.6-1.2,0.6-2.1c0-0.9-0.2-1.7-0.6-2.1
		c-0.4-0.5-1-0.7-1.7-0.7c-0.8,0-1.3,0.2-1.8,0.8C93.9,26.3,93.7,27,93.7,28"/>
	<path d="M103.6,25.8c0,0.3,0.1,0.5,0.3,0.7c0.2,0.2,0.6,0.4,1.2,0.6c0.8,0.3,1.4,0.7,1.7,1.1c0.3,0.4,0.5,0.9,0.5,1.5
		c0,0.8-0.3,1.5-0.9,2c-0.6,0.5-1.5,0.7-2.6,0.7c-0.4,0-0.8,0-1.2-0.1c-0.4-0.1-0.8-0.2-1.1-0.3v-2c0.4,0.3,0.8,0.5,1.2,0.6
		c0.4,0.2,0.8,0.2,1.2,0.2c0.5,0,0.8-0.1,1-0.2c0.2-0.1,0.3-0.3,0.3-0.7c0-0.3-0.1-0.5-0.3-0.7c-0.2-0.2-0.7-0.4-1.3-0.7
		c-0.8-0.3-1.3-0.7-1.6-1.1c-0.3-0.4-0.5-0.9-0.5-1.5c0-0.8,0.3-1.4,0.9-1.9c0.6-0.5,1.4-0.8,2.4-0.8c0.3,0,0.6,0,1,0.1
		s0.7,0.2,0.9,0.3v2c-0.3-0.2-0.6-0.3-0.9-0.5c-0.4-0.1-0.7-0.2-1.1-0.2c-0.4,0-0.7,0.1-0.9,0.2C103.7,25.4,103.6,25.6,103.6,25.8"
		/>
	<path d="M108.3,28c0-1.4,0.4-2.6,1.2-3.4c0.8-0.8,2-1.3,3.4-1.3c1.4,0,2.4,0.4,3.2,1.2s1.2,1.9,1.2,3.3c0,1.4-0.4,2.5-1.2,3.4
		s-1.9,1.3-3.3,1.3c-1.3,0-2.4-0.4-3.2-1.2C108.7,30.5,108.3,29.4,108.3,28 M110.4,28c0,0.9,0.2,1.6,0.6,2.1c0.4,0.5,1,0.7,1.8,0.7
		c0.7,0,1.3-0.2,1.7-0.7c0.4-0.5,0.6-1.2,0.6-2.1c0-0.9-0.2-1.7-0.6-2.1c-0.4-0.5-1-0.7-1.7-0.7c-0.8,0-1.3,0.2-1.8,0.8
		C110.6,26.3,110.4,27,110.4,28"/>
	<path d="M124,25.2v4.5c0,0.9,0.2,1.6,0.6,2.1c0.4,0.5,1.1,0.7,2,0.7c0.3,0,0.6,0,0.9-0.1s0.5-0.1,0.6-0.2v-1.7
		c-0.1,0.1-0.3,0.2-0.4,0.2s-0.3,0.1-0.4,0.1c-0.4,0-0.7-0.1-0.9-0.3c-0.2-0.2-0.3-0.6-0.3-1.1v-4.1h2.1v-1.7h-2.1V21l-2.1,0.6v2
		H121v-1.1c0-0.5,0.1-0.9,0.3-1.2c0.2-0.3,0.6-0.4,1-0.4c0.2,0,0.4,0,0.6,0.1c0.2,0.1,0.3,0.1,0.4,0.2v-1.8
		c-0.2-0.1-0.3-0.1-0.5-0.1s-0.4,0-0.7,0c-0.9,0-1.7,0.3-2.3,0.9c-0.6,0.6-0.9,1.3-0.9,2.3v1.2h-1.5v1.7h1.5v7.1h2.1v-7.1L124,25.2
		L124,25.2z"/>
	<polygon points="72.5,20.1 72.5,32.3 70.4,32.3 70.4,22.7 70.4,22.7 66.6,32.3 65.2,32.3 61.3,22.7 61.3,22.7 61.3,32.3 59.3,32.3 
		59.3,20.1 62.4,20.1 65.9,29.1 65.9,29.1 69.6,20.1 	"/>
	<path d="M64.9,14.8c-0.7,0.4-1.6,0.6-2.5,0.6c-0.7,0-1.3-0.2-1.9-0.5c-0.5-0.3-1-0.7-1.3-1.3c-0.3-0.6-0.4-1.2-0.4-1.9
		c0-0.7,0.2-1.4,0.5-2c0.3-0.6,0.8-1,1.4-1.4c0.6-0.3,1.3-0.5,2-0.5c0.4,0,0.7,0,1.1,0.1c0.4,0.1,0.7,0.2,0.9,0.3v1.1
		c-0.6-0.4-1.3-0.6-2.1-0.6c-0.5,0-1,0.1-1.4,0.4c-0.4,0.2-0.7,0.6-0.9,1c-0.2,0.4-0.3,0.9-0.3,1.5c0,0.9,0.2,1.6,0.7,2.1
		c0.5,0.5,1.1,0.8,1.9,0.8c0.5,0,1-0.1,1.3-0.3v-1.9h-1.6v-0.9h2.6V14.8z"/>
	<path d="M70.8,13h-3.6c0,0.5,0.2,0.9,0.5,1.2c0.3,0.3,0.7,0.4,1.1,0.4c0.6,0,1.2-0.2,1.6-0.5V15c-0.2,0.1-0.5,0.3-0.8,0.3
		c-0.3,0.1-0.6,0.1-1,0.1c-0.8,0-1.4-0.2-1.8-0.7c-0.4-0.5-0.6-1.1-0.6-2c0-0.5,0.1-1,0.3-1.4c0.2-0.4,0.5-0.8,0.9-1
		s0.8-0.4,1.3-0.4c0.7,0,1.2,0.2,1.6,0.7c0.4,0.4,0.6,1,0.6,1.8L70.8,13L70.8,13z M69.8,12.2c0-0.5-0.1-0.8-0.3-1s-0.5-0.4-0.9-0.4
		c-0.3,0-0.6,0.1-0.9,0.4c-0.3,0.2-0.4,0.6-0.5,1H69.8z"/>
	<path d="M74.7,15.3c-0.1,0.1-0.2,0.1-0.4,0.1c-0.2,0-0.3,0-0.5,0c-1,0-1.4-0.5-1.4-1.6v-2.9h-0.9v-0.8h0.9V8.9l1-0.3v1.5h1.3v0.8
		h-1.3v2.7c0,0.3,0.1,0.6,0.2,0.7s0.3,0.2,0.6,0.2c0.2,0,0.4-0.1,0.5-0.2L74.7,15.3L74.7,15.3z"/>
	<path d="M79.7,8.3c0,0.2-0.1,0.3-0.2,0.4c-0.1,0.1-0.3,0.2-0.5,0.2c-0.2,0-0.3-0.1-0.5-0.2c-0.1-0.1-0.2-0.3-0.2-0.4
		s0.1-0.3,0.2-0.4c0.1-0.1,0.3-0.2,0.4-0.2s0.3,0.1,0.4,0.2C79.7,8,79.7,8.1,79.7,8.3 M79.6,15.3h-1v-5.2h1V15.3z"/>
	<path d="M83.9,15.3c-0.1,0.1-0.2,0.1-0.4,0.1c-0.2,0-0.3,0-0.5,0c-1,0-1.4-0.5-1.4-1.6v-2.9h-0.9v-0.8h0.9V8.9l1-0.3v1.5h1.3v0.8
		h-1.3v2.7c0,0.3,0.1,0.6,0.2,0.7c0.1,0.1,0.3,0.2,0.6,0.2c0.2,0,0.4-0.1,0.5-0.2L83.9,15.3L83.9,15.3z"/>
	<path d="M90.5,8.5c-0.2-0.1-0.3-0.1-0.6-0.1c-0.6,0-0.8,0.3-0.8,1v0.7h1.2v0.8h-1.2v4.4h-1v-4.4h-0.9v-0.8h0.9V9.3
		c0-0.6,0.2-1,0.5-1.3c0.3-0.3,0.7-0.5,1.3-0.5c0.3,0,0.5,0,0.6,0.1L90.5,8.5L90.5,8.5z"/>
	<path d="M94.2,11.1c-0.1,0-0.2-0.1-0.3-0.1c-0.1,0-0.3-0.1-0.4-0.1c-0.4,0-0.6,0.2-0.9,0.5c-0.2,0.3-0.3,0.7-0.3,1.2v2.7h-1v-5.2h1
		v1h0c0.1-0.4,0.3-0.6,0.5-0.8c0.2-0.2,0.5-0.3,0.8-0.3c0.2,0,0.4,0,0.5,0.1L94.2,11.1L94.2,11.1z"/>
	<path d="M100,12.7c0,0.8-0.2,1.5-0.7,2c-0.5,0.5-1.1,0.7-1.9,0.7c-0.8,0-1.4-0.2-1.9-0.7c-0.5-0.5-0.7-1.1-0.7-1.9
		c0-0.9,0.2-1.5,0.7-2c0.5-0.5,1.1-0.7,2-0.7c0.8,0,1.4,0.2,1.8,0.7C99.7,11.2,100,11.8,100,12.7 M98.9,12.7c0-0.6-0.1-1.1-0.4-1.4
		c-0.3-0.3-0.6-0.5-1.1-0.5c-0.5,0-0.9,0.2-1.2,0.5c-0.3,0.3-0.4,0.8-0.4,1.4c0,0.6,0.1,1,0.4,1.4c0.3,0.3,0.7,0.5,1.2,0.5
		c0.5,0,0.9-0.2,1.2-0.5C98.8,13.8,98.9,13.3,98.9,12.7"/>
	<path d="M108.9,15.3h-1v-3c0-0.5-0.1-0.9-0.2-1.2c-0.2-0.2-0.5-0.4-0.9-0.4c-0.3,0-0.6,0.2-0.8,0.5c-0.2,0.3-0.3,0.7-0.3,1.1v2.9
		h-1v-3.1c0-0.9-0.4-1.4-1.1-1.4c-0.3,0-0.6,0.2-0.9,0.4s-0.3,0.7-0.3,1.1v2.9h-1v-5.2h1v0.8h0c0.4-0.6,0.9-0.9,1.6-0.9
		c0.3,0,0.6,0.1,0.9,0.3c0.3,0.2,0.5,0.4,0.6,0.8c0.2-0.4,0.4-0.6,0.7-0.8c0.3-0.2,0.6-0.3,1-0.3c1.1,0,1.7,0.7,1.7,2.1L108.9,15.3
		L108.9,15.3z"/>
</g>
</svg>
