<?xml version="1.0" encoding="utf-8"?>
<!-- Generator: Adobe Illustrator 25.0.1, SVG Export Plug-In . SVG Version: 6.00 Build 0)  -->
<svg version="1.1"
	 id="svg13" xmlns:inkscape="http://www.inkscape.org/namespaces/inkscape" xmlns:sodipodi="http://sodipodi.sourceforge.net/DTD/sodipodi-0.dtd" xmlns:svg="http://www.w3.org/2000/svg"
	 xmlns="http://www.w3.org/2000/svg" xmlns:xlink="http://www.w3.org/1999/xlink" x="0px" y="0px" viewBox="0 0 156 40"
	 style="enable-background:new 0 0 156 40;" xml:space="preserve">
<style type="text/css">
	.st0{fill:#FFFFFF;}
</style>
<sodipodi:namedview  bordercolor="#000000" borderopacity="0.25" id="namedview13" inkscape:current-layer="svg13" inkscape:cx="151.73058" inkscape:cy="68.463797" inkscape:deskcolor="#d1d1d1" inkscape:pagecheckerboard="0" inkscape:pageopacity="0.0" inkscape:showpageshadow="2" inkscape:window-height="705" inkscape:window-maximized="1" inkscape:window-width="1366" inkscape:window-x="-8" inkscape:window-y="-8" inkscape:zoom="1.8915106" pagecolor="#ffffff">
	</sodipodi:namedview>
<defs>
	
		<inkscape:path-effect  apply_no_radius="true" apply_with_radius="true" chamfer_steps="1" effect="fillet_chamfer" flexible="false" hide_knots="false" id="path-effect8720-3" is_visible="true" lpeversion="1" method="auto" mode="F" nodesatellites_param="F,0,0,1,0,4.2333333,0,1 @ F,0,0,1,0,4.2333333,0,1 @ F,0,0,1,0,4.2333333,0,1 @ F,0,0,1,0,4.2333333,0,1 @ F,0,0,1,0,4.2333333,0,1 @ F,0,0,1,0,4.2333333,0,1" only_selected="false" radius="16" unit="px" use_knot_distance="true">
		</inkscape:path-effect>
</defs>
<g>
	<path class="st0" d="M8.5,39.3c-4.3,0-7.8-3.5-7.8-7.8v-23c0-4.3,3.5-7.8,7.8-7.8h139c4.3,0,7.8,3.5,7.8,7.8v23
		c0,4.3-3.5,7.8-7.8,7.8H8.5z"/>
	<path d="M147.5,1.5c3.9,0,7,3.1,7,7v23c0,3.9-3.1,7-7,7H8.5c-3.9,0-7-3.1-7-7v-23c0-3.9,3.1-7,7-7H147.5 M147.5,0H8.5
		C3.8,0,0,3.8,0,8.5v23C0,36.2,3.8,40,8.5,40h139c4.7,0,8.5-3.8,8.5-8.5v-23C156,3.8,152.2,0,147.5,0L147.5,0z"/>
</g>
<g>
	<path id="path12_1_" d="M66.6,9.6h-1c0-0.1-0.1-0.3-0.2-0.4c-0.1-0.1-0.2-0.2-0.3-0.3c-0.1-0.1-0.3-0.2-0.4-0.2
		c-0.2,0-0.3-0.1-0.5-0.1l0,0c-0.3,0-0.6,0.1-0.8,0.3C63.2,9,63,9.2,62.8,9.5c-0.1,0.3-0.2,0.7-0.2,1.1l0,0c0,0.4,0.1,0.8,0.2,1.1
		c0.2,0.3,0.4,0.5,0.6,0.6c0.3,0.2,0.5,0.3,0.8,0.3l0,0c0.3,0,0.5-0.1,0.7-0.2c0.2-0.1,0.4-0.2,0.5-0.5c0.1-0.2,0.2-0.5,0.2-0.7l0,0
		h0.2h-1.6v-0.8h2.3v0.7c0,0.5-0.1,0.9-0.3,1.2c-0.2,0.3-0.5,0.6-0.8,0.8c-0.3,0.2-0.8,0.3-1.2,0.3l0,0c-0.5,0-1-0.1-1.4-0.4
		c-0.4-0.2-0.7-0.5-1-1c-0.2-0.4-0.3-1-0.3-1.6l0,0c0-0.4,0.1-0.8,0.2-1.2c0.1-0.3,0.3-0.6,0.6-0.9c0.2-0.3,0.5-0.5,0.8-0.6
		c0.3-0.1,0.6-0.2,1-0.2l0,0c0.3,0,0.6,0,0.9,0.1c0.3,0.1,0.5,0.2,0.7,0.4c0.2,0.2,0.4,0.4,0.5,0.7C66.5,9.1,66.6,9.3,66.6,9.6
		L66.6,9.6z M71.4,13.5h-3.7V7.7h3.7v0.9h-2.7v1.5h2.5v0.9h-2.5v1.5h2.7V13.5z M73.9,8.7h-1.8V7.7h4.6v0.9h-1.8v4.8h-1V8.7z
		 M79.5,7.7h1v5.7h-1V7.7z M83.1,8.7h-1.8V7.7h4.6v0.9h-1.8v4.8h-1V8.7z M93.8,10.6L93.8,10.6c0,0.6-0.1,1.1-0.3,1.6
		c-0.3,0.4-0.6,0.8-1,1c-0.4,0.2-0.8,0.3-1.3,0.3l0,0c-0.5,0-1-0.1-1.4-0.3c-0.4-0.3-0.7-0.6-0.9-1c-0.2-0.4-0.3-1-0.3-1.6l0,0
		c0-0.6,0.1-1.1,0.3-1.6c0.2-0.4,0.5-0.8,0.9-1c0.4-0.3,0.8-0.4,1.4-0.4l0,0c0.5,0,0.9,0.1,1.3,0.4c0.4,0.2,0.7,0.5,1,1
		C93.7,9.5,93.8,10,93.8,10.6z M92.7,10.6L92.7,10.6c0-0.4-0.1-0.8-0.2-1.1C92.4,9.2,92.2,9,92,8.9c-0.2-0.2-0.5-0.3-0.8-0.3l0,0
		c-0.3,0-0.6,0.1-0.8,0.3C90.1,9,90,9.2,89.8,9.5s-0.2,0.7-0.2,1.1l0,0c0,0.4,0.1,0.8,0.2,1.1c0.1,0.3,0.3,0.5,0.5,0.6
		c0.3,0.2,0.5,0.3,0.8,0.3l0,0c0.3,0,0.6-0.1,0.8-0.3c0.3-0.1,0.5-0.3,0.6-0.6C92.7,11.4,92.7,11,92.7,10.6z M98.4,7.7h1v5.7h-0.9
		l-2.7-3.9h-0.1v3.9h-1V7.7h0.9l2.7,3.9h0.1V7.7z"/>
	<path id="path13_1_" d="M65.1,32.1h-2.5V18.4h8.8v2.1h-6.3v3.7h5.7v2.1h-5.7V32.1z M73.5,18.4h2.4v13.7h-2.4V18.4z M81.4,32.3
		L81.4,32.3c-0.7,0-1.2-0.1-1.8-0.3c-0.5-0.3-0.9-0.6-1.2-1c-0.3-0.5-0.5-1-0.5-1.7l0,0c0-0.6,0.1-1.1,0.3-1.4
		c0.2-0.4,0.5-0.7,0.9-0.9c0.3-0.3,0.8-0.4,1.2-0.5c0.5-0.1,1-0.2,1.4-0.3l0,0c0.6-0.1,1.1-0.2,1.5-0.2c0.3,0,0.6-0.1,0.8-0.3
		c0.2-0.1,0.3-0.3,0.3-0.5l0,0l0,0c0-0.5-0.2-0.9-0.5-1.2c-0.3-0.3-0.7-0.5-1.2-0.5l0,0c-0.6,0-1.1,0.1-1.4,0.4
		c-0.3,0.3-0.6,0.6-0.7,0.9l0,0l-2.3-0.3c0.2-0.6,0.5-1.1,0.9-1.6c0.4-0.4,0.9-0.7,1.5-0.9c0.6-0.2,1.3-0.3,1.9-0.3l0,0
		c0.5,0,1,0,1.5,0.1c0.5,0.1,0.9,0.3,1.4,0.6c0.4,0.3,0.7,0.6,1,1.1c0.3,0.4,0.4,1,0.4,1.7l0,0v6.9h-2.3v-1.4h-0.1
		c-0.2,0.3-0.4,0.6-0.7,0.8c-0.3,0.2-0.6,0.4-1,0.6C82.4,32.3,81.9,32.3,81.4,32.3z M82,30.6L82,30.6c0.5,0,0.9-0.1,1.2-0.3
		c0.3-0.2,0.6-0.4,0.8-0.8c0.2-0.3,0.3-0.6,0.3-1l0,0v-1.2c0,0-0.2,0.1-0.3,0.1c-0.2,0.1-0.4,0.2-0.7,0.2c-0.2,0-0.4,0-0.7,0.1
		c-0.2,0-0.4,0.1-0.6,0.1l0,0c-0.3,0.1-0.7,0.2-1,0.3c-0.3,0.1-0.5,0.3-0.7,0.5c-0.2,0.2-0.3,0.5-0.3,0.8l0,0c0,0.4,0.2,0.8,0.5,1
		C81.1,30.5,81.5,30.6,82,30.6z M88.5,21.9h5.9v1.9h-5.9V21.9z M90,29.5V19.4h2.4V29c0,0.3,0,0.6,0.1,0.8c0.1,0.2,0.3,0.3,0.4,0.3
		c0.2,0.1,0.4,0.1,0.6,0.1l0,0c0.1,0,0.3,0,0.4-0.1c0.1,0,0.2,0,0.3-0.1l0,0l0.4,1.9c-0.1,0-0.3,0.1-0.5,0.1c-0.3,0-0.6,0.1-0.9,0.1
		l0,0c-0.6,0-1.1,0-1.6-0.3c-0.5-0.2-0.9-0.5-1.2-1C90.1,30.6,90,30.1,90,29.5L90,29.5z M98.9,26.1L98.9,26.1v6h-2.5V18.4h2.4v5.2
		h0.1c0.2-0.6,0.6-1.1,1.1-1.4c0.5-0.3,1.2-0.5,2-0.5l0,0c0.7,0,1.3,0.2,1.8,0.5c0.6,0.3,1,0.7,1.2,1.3c0.3,0.6,0.5,1.3,0.5,2.1l0,0
		v6.6h-2.4v-6.2c0-0.7-0.2-1.2-0.5-1.6c-0.3-0.4-0.8-0.6-1.5-0.6l0,0c-0.4,0-0.8,0.1-1.2,0.3c-0.3,0.2-0.6,0.4-0.8,0.8
		C98.9,25.2,98.9,25.6,98.9,26.1z M114.5,27.8L114.5,27.8v-6h2.4v10.3h-2.3v-1.8h-0.1c-0.2,0.6-0.6,1-1.1,1.4
		c-0.5,0.3-1.2,0.5-2,0.5l0,0c-0.7,0-1.3-0.2-1.8-0.5c-0.5-0.3-0.9-0.7-1.2-1.3c-0.3-0.6-0.5-1.3-0.5-2.1l0,0v-6.6h2.4V28
		c0,0.6,0.2,1.2,0.6,1.6c0.3,0.4,0.8,0.6,1.4,0.6l0,0c0.4,0,0.7-0.1,1-0.3c0.3-0.2,0.6-0.4,0.8-0.8
		C114.4,28.8,114.5,28.4,114.5,27.8z M121.9,32.1h-2.4V18.4h2.4v5.1h0.1c0.1-0.3,0.3-0.5,0.5-0.8c0.2-0.3,0.5-0.6,0.9-0.8
		c0.4-0.2,0.9-0.3,1.5-0.3l0,0c0.8,0,1.5,0.2,2.1,0.6c0.6,0.4,1.2,1,1.6,1.8c0.4,0.8,0.6,1.7,0.6,2.9l0,0c0,1.1-0.2,2.1-0.6,2.9
		c-0.4,0.8-0.9,1.4-1.5,1.8c-0.7,0.4-1.4,0.6-2.2,0.6l0,0c-0.6,0-1-0.1-1.4-0.3c-0.4-0.2-0.7-0.4-1-0.7c-0.2-0.3-0.4-0.5-0.5-0.8
		l0,0h-0.1V32.1z M121.9,27L121.9,27c0,0.7,0.1,1.2,0.3,1.8c0.2,0.5,0.5,0.9,0.8,1.2c0.3,0.3,0.8,0.4,1.3,0.4l0,0
		c0.5,0,1-0.1,1.4-0.4c0.3-0.3,0.6-0.7,0.8-1.2c0.2-0.5,0.3-1,0.3-1.7l0,0c0-0.6-0.1-1.2-0.3-1.7c-0.2-0.5-0.4-0.9-0.8-1.2
		c-0.4-0.3-0.8-0.5-1.4-0.5l0,0c-0.5,0-1,0.2-1.3,0.5c-0.4,0.3-0.7,0.6-0.8,1.1C122,25.8,121.9,26.3,121.9,27z"/>
	<g id="g8716-6_1_" transform="matrix(0.94282078,0,0,0.94282078,-114.6956,-59.361381)">
		<circle id="circle8708-7_1_" cx="155.9" cy="78.4" r="5.9"/>
		<path id="rect8710-5_1_" d="M153.3,86.3h5c1.6,0,2.8,1.3,2.8,2.8v5c0,1.6-1.3,2.8-2.8,2.8h-5c-1.6,0-2.8-1.3-2.8-2.8v-5
			C150.5,87.6,151.8,86.3,153.3,86.3z"/>
		
			<path id="path8712-3_1_" inkscape:flatsided="false" inkscape:path-effect="#path-effect8720-3" inkscape:randomized="0" inkscape:rounded="0" inkscape:transform-center-x="-3.1627662" inkscape:transform-center-y="0.00010646809" sodipodi:arg1="0.52359878" sodipodi:arg2="1.5707963" sodipodi:cx="63.5" sodipodi:cy="52.916664" sodipodi:r1="11.832526" sodipodi:r2="5.9162631" sodipodi:sides="3" sodipodi:type="star" d="
			M174.7,77l-1.1-0.6l-6.2-3.6c-0.8-0.5-1.9-0.2-2.3,0.6c-0.1,0.3-0.2,0.6-0.2,0.8v1.2v7.1c0,0.9,0.8,1.7,1.7,1.7
			c0.3,0,0.6-0.1,0.8-0.2l1.1-0.6l6.2-3.6c0.8-0.5,1.1-1.5,0.6-2.3C175.2,77.3,175,77.1,174.7,77z"/>
		<path id="path8714-5_1_" d="M174.3,91.7c0,0.6-0.5,1-1,1H165c-0.6,0-1-0.5-1-1s0.5-1,1-1h8.3C173.8,90.7,174.3,91.2,174.3,91.7
			L174.3,91.7z M169.1,86.6c0.6,0,1,0.5,1,1v8.3c0,0.6-0.5,1-1,1c-0.6,0-1-0.5-1-1v-8.3C168.1,87,168.5,86.6,169.1,86.6z"/>
	</g>
</g>
</svg>
