<?xml version="1.0" encoding="utf-8"?>
<!-- Generator: Adobe Illustrator 25.0.1, SVG Export Plug-In . SVG Version: 6.00 Build 0)  -->
<svg version="1.1"
	 id="svg51" xmlns:cc="http://creativecommons.org/ns#" xmlns:dc="http://purl.org/dc/elements/1.1/" xmlns:rdf="http://www.w3.org/1999/02/22-rdf-syntax-ns#"
	 xmlns="http://www.w3.org/2000/svg" xmlns:xlink="http://www.w3.org/1999/xlink" x="0px" y="0px" viewBox="0 0 156 40"
	 style="enable-background:new 0 0 156 40;" xml:space="preserve">
<style type="text/css">
	.st0{fill:#FFFFFF;}
	.st1{fill:#100F0D;}
	.st2{fill:#EB3131;}
	.st3{fill:#F6B60B;}
	.st4{fill:#5778C5;}
	.st5{fill:#3BAD49;}
</style>
<g>
	<path class="st0" d="M8.5,39.2c-4.3,0-7.8-3.5-7.8-7.8v-23c0-4.3,3.5-7.8,7.8-7.8h139c4.3,0,7.8,3.5,7.8,7.8v23
		c0,4.3-3.5,7.8-7.8,7.8H8.5z"/>
	<path d="M147.5,1.5c3.9,0,7,3.1,7,7v23c0,3.9-3.1,7-7,7H8.5c-3.9,0-7-3.1-7-7v-23c0-3.9,3.1-7,7-7H147.5 M147.5,0H8.5
		C3.8,0,0,3.8,0,8.5v23C0,36.2,3.8,40,8.5,40h139c4.7,0,8.5-3.8,8.5-8.5v-23C156,3.8,152.2,0,147.5,0L147.5,0z"/>
</g>
<g>
	<path id="path35" class="st1" d="M115.3,29.1h1.8V17.2h-1.8V29.1z M131.3,21.5l-2,5.2h-0.1l-2.1-5.2h-1.9l3.2,7.2l-1.8,4h1.9
		l4.9-11.3L131.3,21.5z M121.2,27.8c-0.6,0-1.4-0.3-1.4-1c0-0.9,1-1.3,1.9-1.3c0.8,0,1.2,0.2,1.6,0.4
		C123.2,27,122.3,27.8,121.2,27.8L121.2,27.8z M121.4,21.2c-1.3,0-2.6,0.6-3.2,1.8l1.6,0.7c0.3-0.7,1-0.9,1.6-0.9
		c0.9,0,1.9,0.6,1.9,1.5v0.1c-0.3-0.2-1-0.5-1.9-0.5c-1.7,0-3.4,0.9-3.4,2.7c0,1.6,1.4,2.6,3,2.6c1.2,0,1.9-0.5,2.3-1.2h0.1v0.9h1.7
		v-4.6C125.1,22.4,123.5,21.2,121.4,21.2L121.4,21.2z M110.4,22.9h-2.5v-4.1h2.5c1.3,0,2.1,1.1,2.1,2
		C112.5,21.8,111.8,22.9,110.4,22.9z M110.4,17.2h-4.3v11.9h1.8v-4.5h2.5c2,0,3.9-1.4,3.9-3.7C114.3,18.6,112.4,17.2,110.4,17.2
		L110.4,17.2z M87.1,27.8c-1.2,0-2.3-1-2.3-2.4c0-1.4,1-2.5,2.3-2.5c1.2,0,2.2,1,2.2,2.5C89.3,26.7,88.3,27.8,87.1,27.8z M89.1,22.1
		L89.1,22.1c-0.5-0.5-1.2-0.9-2.2-0.9c-2,0-3.9,1.8-3.9,4.1c0,2.3,1.9,4,3.9,4c1,0,1.7-0.4,2.1-0.9h0.1V29c0,1.6-0.8,2.4-2.2,2.4
		c-1.1,0-1.8-0.8-2-1.4l-1.6,0.6C83.8,31.7,85,33,87,33c2.1,0,3.9-1.2,3.9-4.2v-7.3h-1.7L89.1,22.1z M92.1,29.1h1.8V17.2h-1.8V29.1z
		 M96.5,25.2c0-1.6,1.2-2.4,2.1-2.4c0.7,0,1.3,0.4,1.5,0.9L96.5,25.2z M102,23.8c-0.3-0.9-1.4-2.6-3.5-2.6c-2.1,0-3.8,1.6-3.8,4.1
		c0,2.3,1.7,4.1,4,4.1c1.9,0,2.9-1.1,3.4-1.8l-1.4-0.9c-0.5,0.7-1.1,1.1-2,1.1c-0.9,0-1.6-0.4-2-1.2l5.4-2.2L102,23.8z M58.8,22.5
		v1.7h4.1c-0.1,1-0.4,1.7-0.9,2.2c-0.6,0.6-1.5,1.3-3.2,1.3c-2.5,0-4.5-2-4.5-4.6s2-4.6,4.5-4.6c1.4,0,2.4,0.5,3.1,1.2l1.2-1.2
		c-1-1-2.4-1.7-4.3-1.7c-3.5,0-6.4,2.8-6.4,6.3c0,3.5,2.9,6.3,6.4,6.3c1.9,0,3.3-0.6,4.4-1.8c1.1-1.1,1.5-2.7,1.5-4
		c0-0.4,0-0.8-0.1-1.1L58.8,22.5z M69.3,27.8c-1.2,0-2.3-1-2.3-2.5c0-1.5,1.1-2.5,2.3-2.5c1.2,0,2.3,1,2.3,2.5
		C71.6,26.7,70.6,27.8,69.3,27.8z M69.3,21.2c-2.2,0-4.1,1.7-4.1,4.1c0,2.3,1.8,4.1,4.1,4.1c2.2,0,4.1-1.7,4.1-4.1
		C73.4,22.9,71.6,21.2,69.3,21.2z M78.2,27.8c-1.2,0-2.3-1-2.3-2.5c0-1.5,1.1-2.5,2.3-2.5c1.2,0,2.3,1,2.3,2.5
		C80.5,26.7,79.5,27.8,78.2,27.8z M78.2,21.2c-2.2,0-4.1,1.7-4.1,4.1c0,2.3,1.8,4.1,4.1,4.1c2.2,0,4.1-1.7,4.1-4.1
		C82.3,22.9,80.5,21.2,78.2,21.2"/>
	<path id="path37" class="st2" d="M33,19L22.8,29.8c0,0,0,0,0,0c0.3,1.2,1.4,2,2.7,2c0.5,0,1-0.1,1.4-0.4l0,0l11.4-6.6L33,19"/>
	<path id="path39" class="st3" d="M43.2,17.2L43.2,17.2l-5-2.9l-5.6,5l5.6,5.6l4.9-2.8c0.9-0.5,1.4-1.4,1.4-2.4
		C44.7,18.5,44.1,17.6,43.2,17.2"/>
	<path id="path41" class="st4" d="M22.8,9.3c-0.1,0.2-0.1,0.5-0.1,0.7v19.1c0,0.2,0,0.5,0.1,0.7l10.5-10.5L22.8,9.3"/>
	<path id="path43" class="st5" d="M33,19.6l5.3-5.3L26.9,7.7c-0.4-0.2-0.9-0.4-1.4-0.4c-1.3,0-2.3,0.9-2.7,2c0,0,0,0,0,0L33,19.6"/>
	<path id="path33" class="st1" d="M58.4,9.8h-2.8v0.7h2.1c-0.1,0.6-0.3,1-0.7,1.3c-0.4,0.3-0.9,0.5-1.4,0.5c-0.6,0-1.2-0.2-1.6-0.7
		c-0.4-0.4-0.6-1-0.6-1.6c0-0.7,0.2-1.2,0.6-1.6c0.4-0.4,1-0.6,1.6-0.6c0.3,0,0.6,0.1,0.9,0.2c0.3,0.1,0.5,0.3,0.7,0.5l0.5-0.5
		c-0.2-0.3-0.5-0.5-0.9-0.6C56.5,7.1,56.1,7,55.6,7c-0.8,0-1.5,0.3-2.1,0.9c-0.6,0.6-0.9,1.3-0.9,2.1c0,0.8,0.3,1.6,0.9,2.1
		c0.6,0.6,1.3,0.9,2.1,0.9c0.9,0,1.6-0.3,2.1-0.9c0.5-0.5,0.7-1.1,0.7-1.9C58.5,10.1,58.4,10,58.4,9.8L58.4,9.8z M59.5,7.1v5.7h3.4
		v-0.7h-2.6v-1.8h2.4V9.7h-2.4V7.8h2.6V7.1L59.5,7.1z M67.6,7.8V7.1h-3.9v0.7h1.6v5H66v-5L67.6,7.8z M71.1,7.1h-0.7v5.7h0.7V7.1z
		 M76,7.8V7.1h-3.9v0.7h1.6v5h0.7v-5L76,7.8z M83.5,7.9C82.9,7.3,82.2,7,81.4,7c-0.8,0-1.5,0.3-2.1,0.9c-0.6,0.6-0.9,1.3-0.9,2.1
		s0.3,1.6,0.9,2.1c0.6,0.6,1.3,0.9,2.1,0.9c0.8,0,1.5-0.3,2.1-0.9c0.6-0.6,0.9-1.3,0.9-2.1C84.3,9.2,84,8.4,83.5,7.9z M79.8,8.4
		c0.4-0.4,0.9-0.6,1.6-0.6c0.6,0,1.1,0.2,1.6,0.6c0.4,0.4,0.6,1,0.6,1.6c0,0.7-0.2,1.2-0.6,1.6c-0.4,0.4-0.9,0.7-1.6,0.7
		c-0.6,0-1.1-0.2-1.6-0.7c-0.4-0.4-0.6-1-0.6-1.6C79.2,9.3,79.4,8.8,79.8,8.4z M86.1,9.3l0-1.1h0l2.9,4.7h0.8V7.1H89v3.4l0,1.1h0
		l-2.8-4.5h-0.9v5.7h0.7V9.3z"/>
</g>
</svg>
