<?xml version="1.0" encoding="utf-8"?>
<!-- Generator: Adobe Illustrator 25.0.1, SVG Export Plug-In . SVG Version: 6.00 Build 0)  -->
<svg version="1.1"
	 id="svg51" xmlns:cc="http://creativecommons.org/ns#" xmlns:dc="http://purl.org/dc/elements/1.1/" xmlns:rdf="http://www.w3.org/1999/02/22-rdf-syntax-ns#"
	 xmlns="http://www.w3.org/2000/svg" xmlns:xlink="http://www.w3.org/1999/xlink" x="0px" y="0px" viewBox="0 0 156 40"
	 style="enable-background:new 0 0 156 40;" xml:space="preserve">
<style type="text/css">
	.st0{fill:#FFFFFF;}
	.st1{fill:#100F0D;}
	.st2{fill:#EB3131;}
	.st3{fill:#F6B60B;}
	.st4{fill:#5778C5;}
	.st5{fill:#3BAD49;}
</style>
<g>
	<path class="st0" d="M8.5,39.5c-4.4,0-8-3.6-8-8v-23c0-4.4,3.6-8,8-8h139c4.4,0,8,3.6,8,8v23c0,4.4-3.6,8-8,8H8.5z"/>
	<path d="M147.5,1c4.1,0,7.5,3.4,7.5,7.5v23c0,4.1-3.4,7.5-7.5,7.5H8.5C4.4,39,1,35.6,1,31.5v-23C1,4.4,4.4,1,8.5,1H147.5 M147.5,0
		H8.5C3.8,0,0,3.8,0,8.5v23C0,36.2,3.8,40,8.5,40h139c4.7,0,8.5-3.8,8.5-8.5v-23C156,3.8,152.2,0,147.5,0L147.5,0z"/>
</g>
<g>
	<path id="path35" class="st1" d="M123.1,31h2.2V16.6h-2.2V31z M142.5,21.8l-2.5,6.3H140l-2.6-6.3h-2.3l3.8,8.8l-2.2,4.9h2.2
		l5.9-13.6L142.5,21.8z M130.3,29.4c-0.7,0-1.7-0.4-1.7-1.2c0-1.1,1.2-1.5,2.3-1.5c0.9,0,1.4,0.2,2,0.5
		C132.7,28.4,131.6,29.4,130.3,29.4L130.3,29.4z M130.6,21.5c-1.6,0-3.2,0.7-3.8,2.2l1.9,0.8c0.4-0.8,1.2-1.1,2-1.1
		c1.1,0,2.2,0.7,2.3,1.9v0.1c-0.4-0.2-1.2-0.6-2.2-0.6c-2.1,0-4.2,1.1-4.2,3.3c0,1.9,1.7,3.2,3.6,3.2c1.4,0,2.2-0.7,2.8-1.4h0.1V31
		h2.1v-5.5C135,22.9,133,21.5,130.6,21.5L130.6,21.5z M117.2,23.5h-3.1v-5h3.1c1.6,0,2.5,1.3,2.5,2.5
		C119.8,22.2,118.9,23.5,117.2,23.5z M117.2,16.6H112V31h2.2v-5.5h3c2.4,0,4.7-1.7,4.7-4.5C121.9,18.3,119.6,16.6,117.2,16.6
		L117.2,16.6z M89,29.4c-1.5,0-2.7-1.2-2.7-3c0-1.7,1.2-3,2.7-3c1.5,0,2.6,1.3,2.6,3C91.6,28.1,90.5,29.4,89,29.4z M91.5,22.6
		L91.5,22.6c-0.6-0.6-1.5-1.1-2.7-1.1c-2.5,0-4.7,2.2-4.7,4.9c0,2.8,2.3,4.9,4.7,4.9c1.2,0,2.1-0.5,2.6-1.1h0.1v0.7
		c0,1.9-1,2.9-2.6,2.9c-1.3,0-2.1-0.9-2.5-1.7l-1.9,0.8c0.5,1.3,2,2.9,4.4,2.9c2.5,0,4.7-1.5,4.7-5.1v-8.8h-2L91.5,22.6z M95,31h2.2
		V16.6H95V31z M100.4,26.3c-0.1-1.9,1.5-2.9,2.6-2.9c0.9,0,1.6,0.4,1.8,1L100.4,26.3z M107.1,24.6c-0.4-1.1-1.7-3.1-4.2-3.1
		c-2.5,0-4.6,2-4.6,4.9c0,2.8,2.1,4.9,4.9,4.9c2.3,0,3.6-1.4,4.1-2.2l-1.7-1.1c-0.6,0.8-1.3,1.4-2.4,1.4c-1.1,0-1.9-0.5-2.4-1.5
		l6.6-2.7L107.1,24.6z M54.7,23v2.1h5c-0.1,1.2-0.5,2-1.1,2.6c-0.7,0.7-1.9,1.5-3.9,1.5c-3.1,0-5.5-2.5-5.5-5.5s2.4-5.5,5.5-5.5
		c1.7,0,2.9,0.7,3.8,1.5l1.5-1.5c-1.2-1.2-2.9-2.1-5.2-2.1c-4.2,0-7.7,3.4-7.7,7.6c0,4.2,3.5,7.6,7.7,7.6c2.3,0,4-0.7,5.3-2.1
		c1.4-1.4,1.8-3.3,1.8-4.9c0-0.5,0-0.9-0.1-1.3L54.7,23z M67.5,29.4c-1.5,0-2.8-1.2-2.8-3c0-1.8,1.3-3,2.8-3c1.5,0,2.8,1.2,2.8,3
		C70.3,28.2,69,29.4,67.5,29.4z M67.5,21.5c-2.7,0-4.9,2.1-4.9,4.9c0,2.8,2.2,4.9,4.9,4.9c2.7,0,4.9-2.1,4.9-4.9
		C72.5,23.6,70.2,21.5,67.5,21.5z M78.3,29.4c-1.5,0-2.8-1.2-2.8-3c0-1.8,1.3-3,2.8-3c1.5,0,2.8,1.2,2.8,3
		C81.1,28.2,79.8,29.4,78.3,29.4z M78.3,21.5c-2.7,0-4.9,2.1-4.9,4.9c0,2.8,2.2,4.9,4.9,4.9c2.7,0,4.9-2.1,4.9-4.9
		C83.2,23.6,81,21.5,78.3,21.5"/>
	<path id="path37" class="st2" d="M23.5,18.8L11.2,31.9c0,0,0,0,0,0c0.4,1.4,1.7,2.5,3.2,2.5c0.6,0,1.2-0.2,1.7-0.5l0,0l13.8-8
		L23.5,18.8"/>
	<path id="path39" class="st3" d="M35.9,16.6L35.9,16.6l-6-3.5l-6.7,6l6.8,6.8l5.9-3.4c1-0.6,1.8-1.7,1.8-2.9
		C37.7,18.2,37,17.1,35.9,16.6"/>
	<path id="path41" class="st4" d="M11.2,7.1c-0.1,0.3-0.1,0.6-0.1,0.9V31c0,0.3,0,0.6,0.1,0.9l12.7-12.7L11.2,7.1"/>
	<path id="path43" class="st5" d="M23.6,19.5l6.4-6.4l-13.8-8c-0.5-0.3-1.1-0.5-1.7-0.5c-1.5,0-2.8,1-3.2,2.5c0,0,0,0,0,0L23.6,19.5
		"/>
	<path id="path33" class="st1" d="M54.3,7.7h-3.4v0.8h2.5c-0.1,0.7-0.3,1.2-0.8,1.6c-0.5,0.4-1,0.6-1.7,0.6c-0.8,0-1.4-0.3-1.9-0.8
		c-0.5-0.5-0.8-1.2-0.8-2c0-0.8,0.3-1.5,0.8-2c0.5-0.5,1.2-0.8,1.9-0.8c0.4,0,0.8,0.1,1.1,0.2c0.3,0.1,0.6,0.4,0.8,0.6l0.6-0.6
		c-0.3-0.3-0.7-0.6-1.1-0.8c-0.5-0.2-0.9-0.3-1.4-0.3c-1,0-1.9,0.4-2.6,1c-0.7,0.7-1,1.6-1,2.6s0.4,1.9,1,2.6c0.7,0.7,1.6,1,2.6,1
		c1.1,0,1.9-0.3,2.6-1c0.6-0.6,0.9-1.4,0.9-2.3C54.4,8,54.3,7.8,54.3,7.7L54.3,7.7z M55.6,4.4v7h4.1v-0.9h-3.2V8.3h2.9V7.5h-2.9V5.3
		h3.2V4.4L55.6,4.4z M65.4,5.3V4.4h-4.8v0.9h1.9v6.1h0.9V5.3L65.4,5.3z M69.7,4.4h-0.9v7h0.9V4.4z M75.6,5.3V4.4h-4.8v0.9h1.9v6.1
		h0.9V5.3L75.6,5.3z M84.6,5.3c-0.7-0.7-1.5-1.1-2.5-1.1c-1,0-1.9,0.4-2.5,1c-0.7,0.7-1,1.6-1,2.6s0.3,1.9,1,2.6
		c0.7,0.7,1.5,1,2.5,1c1,0,1.9-0.4,2.5-1c0.7-0.7,1-1.6,1-2.6C85.6,6.9,85.3,6,84.6,5.3z M80.2,5.9c0.5-0.5,1.1-0.8,1.9-0.8
		c0.8,0,1.4,0.3,1.9,0.8c0.5,0.5,0.8,1.2,0.8,2c0,0.8-0.3,1.5-0.8,2c-0.5,0.5-1.1,0.8-1.9,0.8c-0.8,0-1.4-0.3-1.9-0.8
		c-0.5-0.5-0.8-1.2-0.8-2C79.4,7.1,79.7,6.4,80.2,5.9z M87.8,7l0-1.3h0l3.5,5.7h0.9v-7h-0.9v4.1l0,1.3h0L88,4.4h-1.1v7h0.9V7z"/>
</g>
</svg>
