<?xml version="1.0" encoding="UTF-8"?>
<svg id="Layer_2" data-name="Layer 2" xmlns="http://www.w3.org/2000/svg" viewBox="0 0 600 200">
  <defs>
    <style>
      .cls-1 {
        fill: none;
      }

      .cls-2 {
        fill: #eeedee;
      }

      .cls-3 {
        fill: #faa32c;
      }

      .cls-4 {
        fill: #221e1f;
      }

      .cls-5 {
        fill: #fafafa;
      }
    </style>
  </defs>
  <g id="logo">
    <g>
      <rect class="cls-1" width="600" height="200"/>
      <g>
        <g>
          <path class="cls-2" d="M273.89,32.32v6.12h-9.61v25.76h-7.18v-25.76h-9.61v-6.12h26.4Z"/>
          <path class="cls-2" d="M273.43,52.29c0-2.15.33-4.02.99-5.63s1.53-2.95,2.6-4.03,2.31-1.89,3.7-2.44,2.83-.83,4.3-.83c3.43,0,6.15,1.05,8.14,3.15,1.99,2.1,2.99,5.19,2.99,9.27,0,.4-.02.84-.05,1.31-.03.48-.06.9-.09,1.26h-15.55c.15,1.41.81,2.53,1.98,3.36,1.17.83,2.73,1.24,4.69,1.24,1.26,0,2.49-.11,3.7-.34,1.21-.23,2.2-.51,2.97-.85l.92,5.57c-.37.18-.86.37-1.47.55-.61.18-1.3.34-2.05.48-.75.14-1.56.25-2.42.34-.86.09-1.72.14-2.58.14-2.18,0-4.07-.32-5.68-.97-1.61-.64-2.94-1.53-4-2.65-1.06-1.12-1.84-2.45-2.35-3.98s-.76-3.19-.76-4.97ZM289.53,49.66c-.03-.58-.13-1.15-.3-1.7-.17-.55-.43-1.04-.78-1.47-.35-.43-.8-.78-1.33-1.06-.54-.28-1.2-.41-2-.41s-1.43.13-1.98.39c-.55.26-1.01.61-1.38,1.04-.37.43-.65.93-.85,1.5-.2.57-.34,1.14-.44,1.72h9.06Z"/>
          <path class="cls-2" d="M300.3,52.1c0-1.75.28-3.4.85-4.95.57-1.55,1.39-2.9,2.46-4.05,1.07-1.15,2.38-2.06,3.91-2.74,1.53-.67,3.28-1.01,5.24-1.01,1.29,0,2.47.12,3.54.34,1.07.23,2.12.56,3.13.99l-1.43,5.47c-.64-.24-1.35-.46-2.12-.64-.77-.18-1.63-.28-2.58-.28-2.02,0-3.54.63-4.53,1.89-1,1.26-1.5,2.91-1.5,4.97,0,2.18.47,3.86,1.4,5.06.93,1.2,2.57,1.79,4.9,1.79.83,0,1.72-.08,2.67-.23.95-.15,1.82-.4,2.62-.74l.97,5.61c-.8.34-1.79.63-2.99.87-1.2.25-2.51.37-3.96.37-2.21,0-4.11-.33-5.7-.99-1.59-.66-2.91-1.56-3.93-2.69-1.03-1.13-1.78-2.48-2.25-4.02-.48-1.55-.71-3.23-.71-5.04Z"/>
          <path class="cls-2" d="M324.45,64.2V29.61l6.85-1.1v11.59c.46-.15,1.05-.3,1.77-.44.72-.14,1.42-.21,2.09-.21,1.96,0,3.6.27,4.9.81,1.3.54,2.35,1.3,3.13,2.28.78.98,1.33,2.15,1.66,3.5.32,1.35.48,2.85.48,4.51v13.66h-6.85v-12.83c0-2.21-.28-3.77-.85-4.69s-1.62-1.38-3.15-1.38c-.61,0-1.19.05-1.73.16-.54.11-1.02.22-1.45.35v18.4h-6.85Z"/>
          <path class="cls-2" d="M361.13,46.79l4.81-6.78h7.08l-8.4,11.77c1.92,2.21,3.63,4.41,5.13,6.59,1.49,2.18,2.69,4.13,3.59,5.84h-7.35c-.25-.46-.56-1.04-.93-1.73-.37-.69-.78-1.41-1.24-2.16s-.94-1.39-1.44-1.91-.99-1-1.48-1.42c-.46.4-.93.84-1.41,1.32-.48.48-.93,1.08-1.37,1.8s-.85,1.43-1.27,2.14c-.42.7-.78,1.36-1.11,1.97h-6.97c.39-.75.89-1.66,1.53-2.71.63-1.05,1.33-2.13,2.08-3.25.75-1.12,1.57-2.2,2.45-3.26.88-1.05,1.74-2.04,2.58-2.97-1.5-2.14-2.95-4.19-4.34-6.16-1.39-1.97-2.76-3.92-4.12-5.85h7.41l4.76,6.78Z"/>
          <path class="cls-2" d="M398.87,64.2c-.35-1.11-.74-2.25-1.14-3.41-.41-1.17-.82-2.33-1.22-3.49h-12.45c-.4,1.16-.81,2.33-1.21,3.5-.4,1.17-.78,2.3-1.13,3.4h-7.45c1.2-3.43,2.34-6.61,3.41-9.52,1.08-2.91,2.13-5.66,3.16-8.23,1.03-2.58,2.05-5.02,3.05-7.34s2.04-4.58,3.12-6.79h6.8c1.05,2.21,2.08,4.47,3.1,6.79,1.02,2.32,2.04,4.76,3.07,7.34s2.09,5.32,3.17,8.23,2.22,6.09,3.42,9.52h-7.69ZM390.25,39.55c-.16.46-.39,1.09-.7,1.89-.31.8-.66,1.72-1.05,2.76-.39,1.04-.83,2.19-1.32,3.45-.49,1.25-.98,2.57-1.48,3.95h9.12c-.49-1.38-.96-2.7-1.42-3.96-.46-1.26-.89-2.41-1.3-3.46-.41-1.04-.77-1.96-1.08-2.76s-.56-1.42-.75-1.87Z"/>
          <path class="cls-2" d="M424.77,46.08c-.61-.15-1.33-.31-2.16-.48s-1.72-.25-2.67-.25c-.43,0-.94.04-1.54.11-.6.08-1.05.16-1.36.25v18.49h-6.85v-22.91c1.23-.43,2.67-.83,4.35-1.22,1.67-.38,3.53-.58,5.59-.58.37,0,.81.02,1.33.07.52.05,1.04.11,1.56.18.52.08,1.04.17,1.56.28.52.11.97.24,1.33.39l-1.15,5.66Z"/>
          <path class="cls-2" d="M429.37,33.98l6.85-1.1v7.13h8.23v5.7h-8.23v8.51c0,1.44.25,2.59.76,3.45.51.86,1.53,1.29,3.06,1.29.74,0,1.5-.07,2.28-.21.78-.14,1.5-.33,2.14-.57l.97,5.34c-.83.34-1.75.63-2.76.87-1.01.25-2.25.37-3.73.37-1.87,0-3.42-.25-4.65-.76-1.23-.51-2.21-1.21-2.94-2.12-.74-.9-1.25-2-1.54-3.29-.29-1.29-.44-2.71-.44-4.28v-20.33Z"/>
          <path class="cls-2" d="M457.52,33.01c0,1.26-.41,2.25-1.22,2.97s-1.77,1.08-2.88,1.08-2.06-.36-2.88-1.08-1.22-1.71-1.22-2.97.41-2.25,1.22-2.97,1.77-1.08,2.88-1.08,2.06.36,2.88,1.08,1.22,1.71,1.22,2.97ZM456.88,64.2h-6.85v-24.2h6.85v24.2Z"/>
          <path class="cls-2" d="M470.27,59.28c1.26,0,2.15-.12,2.67-.37.52-.25.78-.72.78-1.43,0-.55-.34-1.04-1.01-1.45s-1.7-.88-3.08-1.4c-1.07-.4-2.05-.81-2.92-1.24s-1.62-.94-2.23-1.54c-.61-.6-1.09-1.31-1.43-2.14-.34-.83-.51-1.82-.51-2.99,0-2.27.84-4.06,2.53-5.38s4-1.98,6.95-1.98c1.47,0,2.88.13,4.23.39,1.35.26,2.42.54,3.22.85l-1.2,5.34c-.8-.28-1.66-.52-2.6-.74-.94-.21-1.99-.32-3.15-.32-2.15,0-3.22.6-3.22,1.79,0,.28.05.52.14.74.09.21.28.42.55.62.28.2.65.42,1.13.65s1.08.49,1.82.76c1.5.56,2.74,1.11,3.73,1.65s1.76,1.12,2.32,1.75c.57.63.97,1.32,1.2,2.09.23.76.34,1.65.34,2.66,0,2.39-.9,4.19-2.69,5.42s-4.33,1.84-7.61,1.84c-2.15,0-3.93-.18-5.36-.55-1.43-.37-2.42-.67-2.97-.92l1.15-5.57c1.17.46,2.36.82,3.59,1.08,1.23.26,2.44.39,3.63.39Z"/>
          <path class="cls-2" d="M494.32,39.36c2.02,0,3.71.23,5.06.69,1.35.46,2.43,1.12,3.24,1.98.81.86,1.39,1.9,1.73,3.13.34,1.23.51,2.59.51,4.09v14.26c-.98.21-2.35.47-4.09.76s-3.86.44-6.35.44c-1.56,0-2.98-.14-4.25-.41-1.27-.28-2.37-.73-3.29-1.36-.92-.63-1.62-1.45-2.12-2.46-.49-1.01-.74-2.25-.74-3.73s.28-2.61.85-3.59c.57-.98,1.33-1.76,2.28-2.35.95-.58,2.04-1,3.27-1.26s2.5-.39,3.82-.39c.89,0,1.68.04,2.37.12.69.08,1.25.18,1.68.3v-.64c0-1.17-.35-2.1-1.06-2.81-.71-.71-1.93-1.06-3.68-1.06-1.17,0-2.32.08-3.45.25-1.14.17-2.12.41-2.94.71l-.87-5.52c.4-.12.9-.25,1.5-.39.6-.14,1.25-.26,1.96-.37.71-.11,1.45-.2,2.23-.28.78-.08,1.57-.12,2.37-.12ZM494.87,59.42c.67,0,1.32-.01,1.93-.05.61-.03,1.1-.08,1.47-.14v-5.2c-.28-.06-.69-.12-1.24-.18-.55-.06-1.06-.09-1.52-.09-.64,0-1.25.04-1.82.11-.57.08-1.07.22-1.5.44-.43.21-.77.51-1.01.87-.25.37-.37.83-.37,1.38,0,1.07.36,1.82,1.08,2.23.72.41,1.71.62,2.97.62Z"/>
          <path class="cls-2" d="M511.07,40.83c1.17-.34,2.67-.65,4.51-.94,1.84-.29,3.77-.44,5.8-.44s3.76.27,5.13.81c1.36.54,2.45,1.3,3.24,2.28.8.98,1.36,2.15,1.7,3.5.34,1.35.51,2.85.51,4.51v13.66h-6.85v-12.83c0-2.21-.29-3.77-.87-4.69-.58-.92-1.67-1.38-3.27-1.38-.49,0-1.01.02-1.56.07s-1.04.1-1.47.16v18.68h-6.85v-23.37Z"/>
          <path class="cls-2" d="M269.71,109.14v3.86h-19.18v-31.88h4.46v28.01h14.72Z"/>
          <path class="cls-2" d="M276.24,84.76c-.77,0-1.42-.25-1.96-.76-.54-.51-.8-1.19-.8-2.05s.27-1.54.8-2.05c.54-.51,1.19-.76,1.96-.76s1.42.25,1.96.76c.54.51.8,1.19.8,2.05s-.27,1.54-.8,2.05c-.54.51-1.19.76-1.96.76ZM278.4,113h-4.28v-23.92h4.28v23.92Z"/>
          <path class="cls-2" d="M285.76,89.77c.98-.25,2.28-.51,3.89-.78,1.61-.28,3.47-.41,5.59-.41,1.53,0,2.82.21,3.86.62,1.04.41,1.92,1.02,2.62,1.82.21-.15.55-.37,1.01-.64s1.03-.54,1.7-.8c.67-.26,1.43-.49,2.25-.69.83-.2,1.72-.3,2.67-.3,1.84,0,3.34.27,4.51.8,1.17.54,2.08,1.3,2.74,2.28.66.98,1.1,2.15,1.33,3.5.23,1.35.34,2.82.34,4.42v13.43h-4.28v-12.51c0-1.41-.07-2.62-.21-3.63-.14-1.01-.4-1.86-.78-2.53-.38-.67-.91-1.17-1.56-1.5s-1.51-.48-2.55-.48c-1.44,0-2.63.19-3.57.57-.94.38-1.57.73-1.91,1.04.24.8.43,1.67.55,2.62.12.95.18,1.95.18,2.99v13.43h-4.28v-12.51c0-1.41-.08-2.62-.23-3.63-.15-1.01-.42-1.86-.8-2.53-.38-.67-.91-1.17-1.56-1.5-.66-.32-1.5-.48-2.51-.48-.43,0-.89.02-1.38.05-.49.03-.96.07-1.4.11-.44.05-.85.1-1.22.16-.37.06-.61.11-.74.14v20.19h-4.28v-23.23Z"/>
          <path class="cls-2" d="M327.48,84.76c-.77,0-1.42-.25-1.96-.76-.54-.51-.8-1.19-.8-2.05s.27-1.54.8-2.05c.54-.51,1.19-.76,1.96-.76s1.42.25,1.96.76c.54.51.8,1.19.8,2.05s-.27,1.54-.8,2.05c-.54.51-1.19.76-1.96.76ZM329.65,113h-4.28v-23.92h4.28v23.92Z"/>
          <path class="cls-2" d="M341.01,89.08h9.06v3.59h-9.06v11.04c0,1.2.09,2.19.28,2.97.18.78.46,1.4.83,1.84.37.44.83.76,1.38.94.55.18,1.2.28,1.93.28,1.29,0,2.32-.15,3.11-.44.78-.29,1.33-.5,1.63-.62l.83,3.54c-.43.22-1.18.48-2.25.81-1.07.32-2.3.48-3.68.48-1.63,0-2.97-.21-4.02-.62-1.06-.41-1.91-1.03-2.55-1.86-.64-.83-1.1-1.85-1.36-3.06-.26-1.21-.39-2.61-.39-4.21v-21.34l4.28-.74v7.41Z"/>
          <path class="cls-2" d="M353.7,101.09c0-2.12.31-3.96.92-5.54.61-1.58,1.43-2.89,2.44-3.93,1.01-1.04,2.18-1.82,3.5-2.35,1.32-.52,2.67-.78,4.05-.78,3.22,0,5.69,1,7.41,3.01,1.72,2.01,2.58,5.07,2.58,9.18v.71c0,.29-.02.56-.05.81h-16.38c.18,2.48.9,4.37,2.16,5.66,1.26,1.29,3.22,1.93,5.89,1.93,1.5,0,2.77-.13,3.79-.39,1.03-.26,1.8-.51,2.32-.76l.6,3.59c-.52.28-1.43.57-2.74.87-1.3.31-2.78.46-4.44.46-2.09,0-3.89-.31-5.41-.94-1.52-.63-2.77-1.5-3.75-2.6-.98-1.1-1.71-2.41-2.18-3.93-.48-1.52-.71-3.18-.71-4.99ZM370.12,98.74c.03-1.93-.45-3.52-1.45-4.76-1-1.24-2.37-1.86-4.12-1.86-.98,0-1.85.19-2.6.58-.75.38-1.39.88-1.91,1.5s-.93,1.32-1.22,2.12c-.29.8-.48,1.61-.58,2.44h11.87Z"/>
          <path class="cls-2" d="M396.21,78.04l4.28-.74v35.01c-.98.28-2.24.55-3.77.83-1.53.28-3.3.41-5.29.41-1.84,0-3.5-.29-4.97-.87-1.47-.58-2.73-1.41-3.77-2.48-1.04-1.07-1.85-2.38-2.42-3.93s-.85-3.29-.85-5.22.24-3.53.71-5.06,1.17-2.85,2.09-3.96c.92-1.1,2.05-1.96,3.38-2.58,1.33-.61,2.86-.92,4.58-.92,1.38,0,2.6.18,3.66.55,1.06.37,1.85.72,2.37,1.06v-12.1ZM396.21,94.14c-.52-.43-1.27-.84-2.25-1.24s-2.05-.6-3.22-.6c-1.23,0-2.28.22-3.15.67-.87.45-1.59,1.06-2.14,1.84-.55.78-.95,1.71-1.2,2.78-.25,1.07-.37,2.22-.37,3.45,0,2.79.69,4.95,2.07,6.46,1.38,1.52,3.22,2.28,5.52,2.28,1.17,0,2.14-.05,2.92-.16.78-.11,1.39-.22,1.82-.34v-15.13Z"/>
          <path class="cls-2" d="M249.45,167.01v-41.15h13.84v4.49c-.96,3.71-2.16,7.67-3.59,11.86,2.52,3.12,3.71,6.77,3.59,10.96.12,4.43-1.56,6.83-5.03,7.19-.36,0-.9.06-1.62.18-.6,0-1.14.06-1.62.18-.36-2.04-.78-3.65-1.26-4.85v11.14h-4.31ZM253.76,130.18v25.52c.96.12,1.86.18,2.7.18,1.8,0,2.63-1.26,2.52-3.77,0-3.23-1.2-6.41-3.59-9.52.84-2.75,2.04-6.89,3.59-12.4h-5.21ZM264.36,131.97v-3.77h10.78v-4.13h4.49v4.13h10.96v3.77h-10.96v3.23h9.88v18.15h-9.88v3.41h11.68v3.77h-11.68v6.47h-4.49v-6.47h-11.5v-3.77h11.5v-3.41h-9.88v-18.15h9.88v-3.23h-10.78ZM269.39,138.62v4.13h5.75v-4.13h-5.75ZM269.39,145.81v4.13h5.75v-4.13h-5.75ZM285.38,138.62h-5.75v4.13h5.75v-4.13ZM279.63,145.81v4.13h5.75v-4.13h-5.75Z"/>
          <path class="cls-2" d="M296.88,165.39v-39.17h38.99v4.49h-34.14v30.37h34.86v4.31h-39.71ZM321.86,159.47v-11.5h-9.7c-.12,4.07-1.38,8.15-3.77,12.22-1.44-1.08-2.82-2.09-4.13-3.05,2.52-3.11,3.65-8.09,3.41-14.91v-7.55c8.02-.12,15.81-.6,23.36-1.44l1.26,4.13c-6.95.72-13.6,1.2-19.95,1.44v4.85h22.46v4.31h-8.27v11.5h-4.67Z"/>
          <path class="cls-2" d="M340.91,133.41v-4.31h13.3c.36-.6.78-1.5,1.26-2.7.48-1.08.84-1.92,1.08-2.52l5.39.54c-.24.48-.6,1.26-1.08,2.34-.48.96-.84,1.74-1.08,2.34h23.18v4.31h-25.34c-.24.36-.54.9-.9,1.62-.72,1.2-1.26,2.04-1.62,2.52h23.36v23.18c.24,3.71-1.8,5.57-6.11,5.57-1.92.12-4.31.18-7.19.18-.12-.72-.36-1.68-.72-2.88-.12-.6-.24-1.08-.36-1.44h6.11c2.39.24,3.47-.72,3.23-2.88v-1.62h-20.66v9.16h-4.85v-20.12c-1.92,2.04-3.95,3.95-6.11,5.75-.36-.84-.96-2.22-1.8-4.13-.24-.36-.36-.6-.36-.72,5.39-4.43,9.46-9.16,12.22-14.2h-10.96ZM352.77,141.68v4.13h20.66v-4.13h-20.66ZM352.77,149.58v4.13h20.66v-4.13h-20.66Z"/>
          <path class="cls-2" d="M387.45,167.01v-41.15h13.84v4.31l-3.41,11.86c2.52,3.35,3.71,6.95,3.59,10.78.12,4.79-1.62,7.31-5.21,7.55-.72.12-1.68.18-2.88.18-.12-.24-.24-.6-.36-1.08-.36-1.56-.72-2.75-1.08-3.59h2.7c1.8.12,2.7-1.2,2.7-3.95.12-2.88-1.08-5.87-3.59-8.98l3.41-12.76h-5.39v36.84h-4.31ZM426.98,166.11c-8.27-3.48-13.42-9.46-15.45-17.97h-3.23v12.94c.36-.12,1.02-.36,1.98-.72.84-.48,2.52-1.2,5.03-2.16,0,.6.06,1.5.18,2.7v1.62c-1.08.36-2.76,1.02-5.03,1.98-1.08.36-1.86.66-2.34.9-.12,0-.24.06-.36.18-1.2.48-2.16.96-2.88,1.44l-2.34-3.77c1.08-.96,1.56-2.16,1.44-3.59v-33.6h21.74v22.1h-9.7c.72,2.28,1.56,4.25,2.52,5.93,2.75-1.68,5.21-3.35,7.37-5.03l2.7,3.41c-.6.36-1.5.9-2.7,1.62-2.16,1.32-3.77,2.34-4.85,3.05,1.92,1.92,4.73,3.53,8.45,4.85-.96,1.44-1.8,2.81-2.52,4.13ZM408.29,130.18v5.03h13.12v-5.03h-13.12ZM408.29,144.01h13.12v-5.03h-13.12v5.03Z"/>
          <path class="cls-2" d="M434.88,147.43c-1.08-1.56-2.22-2.99-3.41-4.31,6.35-4.55,11.2-10.42,14.55-17.61l4.67,1.8c-3.71,7.91-8.98,14.62-15.81,20.12ZM468.66,167.01l-2.88-3.77c-11.02.48-18.75.9-23.18,1.26-2.04,0-3.77.18-5.21.54l-2.16-4.31c1.44-.96,2.75-2.04,3.95-3.23,4.43-5.39,8.32-11.08,11.68-17.07l4.85,2.52c-3.71,5.63-7.91,11.38-12.58,17.25,8.27-.48,14.73-.78,19.41-.9-.84-1.2-2.16-2.99-3.95-5.39-.96-1.32-1.68-2.27-2.16-2.88l3.77-2.52c3.11,3.95,7.37,9.16,12.76,15.63l-4.31,2.88ZM472.44,146.71c-7.43-4.91-12.76-11.62-15.99-20.12l4.49-1.8c3.11,7.67,7.96,13.42,14.55,17.25-.24.48-.72,1.26-1.44,2.34s-1.26,1.86-1.62,2.34Z"/>
          <path class="cls-2" d="M478.37,139.34v-4.31h32.34v4.31h-32.34ZM504.24,166.47c-.12-1.56-.48-3.12-1.08-4.67h7.19c2.52.12,3.71-.9,3.59-3.05v-28.21h-33.6v-4.49h38.63v33.96c.12,4.31-1.98,6.47-6.29,6.47h-8.45ZM482.14,161.8v-18.15h24.26v15.45h-19.41v2.7h-4.85ZM501.37,154.97v-7.19h-14.38v7.19h14.38Z"/>
        </g>
        <g>
          <path class="cls-3" d="M198.94,22.92h-113.59c-11.2,0-20.28,9.08-20.28,20.28v113.59c0,11.2,9.08,20.28,20.28,20.28h113.59c11.2,0,20.28-9.08,20.28-20.28V43.2c0-11.2-9.08-20.28-20.28-20.28ZM185.14,81.99h-13.41l-18.33,18.33,17.7,17.7h14.04v24.99h-24.99v-13.41l-18.02-18.02-18.01,18.01v13.41h-24.99v-24.99h14.03l17.7-17.7-18.33-18.33h-13.41v-24.99h24.99v14.04l18.01,18.01,18.02-18.02v-14.03h24.99v24.99Z"/>
          <path class="cls-4" d="M185.14,81.99v-24.99h-24.99v14.03l-18.02,18.02-18.01-18.01v-14.04h-24.99v24.99h13.41l18.33,18.33-17.7,17.7h-14.03v24.99h24.99v-13.41l18.01-18.01,18.02,18.02v13.41h24.99v-24.99h-14.04l-17.7-17.7,18.33-18.33h13.41ZM142.14,105.32h0s-22.5,22.5-22.5,22.5c.27.83.42,1.72.42,2.64,0,4.69-3.8,8.49-8.49,8.49s-8.49-3.8-8.49-8.49,3.8-8.49,8.49-8.49c.98,0,1.92.18,2.8.48l22.45-22.45-22.91-22.91c-.75.21-1.53.34-2.34.34-4.69,0-8.49-3.8-8.49-8.49s3.8-8.49,8.49-8.49,8.49,3.8,8.49,8.49c0,1.09-.21,2.13-.59,3.08l27.98,27.98-5.32,5.32Z"/>
          <path class="cls-5" d="M142.14,105.32l5.32-5.32-27.98-27.98c.37-.96.59-1.99.59-3.08,0-4.69-3.8-8.49-8.49-8.49s-8.49,3.8-8.49,8.49,3.8,8.49,8.49,8.49c.81,0,1.6-.12,2.34-.34l22.91,22.91-22.45,22.45c-.88-.31-1.82-.48-2.8-.48-4.69,0-8.49,3.8-8.49,8.49s3.8,8.49,8.49,8.49,8.49-3.8,8.49-8.49c0-.92-.15-1.81-.42-2.64l22.5-22.5h0Z"/>
        </g>
      </g>
    </g>
  </g>
</svg>