<svg xmlns="http://www.w3.org/2000/svg" viewBox="0 0 600 100"><defs><style>.cls-1{fill:none;}.cls-2{font-size:73.17px;fill:#ededed;font-family:Ubuntu-Bold, Ubuntu;font-weight:700;}.cls-3{letter-spacing:-0.07em;}.cls-4{fill:#faa22c;}.cls-5{fill:#211e1f;}.cls-6{fill:#f9f9fa;}</style></defs><g id="Layer_2" data-name="Layer 2"><g id="logo"><rect class="cls-1" width="600" height="100"/><text class="cls-2" transform="translate(118.34 77.78)"><tspan class="cls-3">T</tspan><tspan x="39.44" y="0">echxArtisan</tspan></text><path class="cls-4" d="M92.94,12.05H37a10,10,0,0,0-10,10v55.9a10,10,0,0,0,10,10h55.9a10,10,0,0,0,10-10V22A10,10,0,0,0,92.94,12.05ZM86.15,41.11h-6.6l-9,9,8.71,8.71h6.9v12.3H73.86v-6.6L65,55.67l-8.86,8.87v6.6H43.83V58.84h6.91l8.71-8.71-9-9h-6.6V28.82h12.3v6.9L65,44.59l8.87-8.87v-6.9H86.15Z"/><path class="cls-5" d="M86.15,41.11V28.82H73.86v6.9L65,44.59l-8.86-8.87v-6.9H43.83V41.11h6.6l9,9-8.71,8.71H43.83v12.3h12.3v-6.6L65,55.67l8.87,8.87v6.6H86.15V58.84h-6.9l-8.71-8.71,9-9ZM65,52.59h0L53.92,63.66a4,4,0,0,1,.21,1.3A4.16,4.16,0,1,1,51.33,61L62.38,50,51.11,38.71a4.45,4.45,0,0,1-1.16.16,4.18,4.18,0,1,1,4.18-4.18,4,4,0,0,1-.29,1.52L67.61,50Z"/><path class="cls-6" d="M65,52.59,67.61,50,53.84,36.21a4,4,0,0,0,.29-1.52A4.18,4.18,0,1,0,50,38.87a4.45,4.45,0,0,0,1.16-.16L62.38,50,51.33,61A4.18,4.18,0,1,0,54.13,65a4,4,0,0,0-.21-1.3L65,52.59Z"/></g></g></svg>