<?xml version="1.0" encoding="UTF-8"?>
<svg id="Layer_2" data-name="Layer 2" xmlns="http://www.w3.org/2000/svg" viewBox="0 0 469.34 70">
  <defs>
    <style>
      .cls-1 {
        fill: #fff;
      }
    </style>
  </defs>
  <g id="_图层_1" data-name="图层 1">
    <g>
      <path class="cls-1" d="M4.24,52.75c-1.28-.77-2.31-1.8-3.08-3.08-.77-1.28-1.16-2.7-1.16-4.24v-23.66c0-1.54.38-2.95,1.16-4.24.77-1.28,1.8-2.31,3.08-3.08,1.28-.77,2.69-1.16,4.23-1.16h24.36c1.59,0,3.02.38,4.3,1.16,1.28.77,2.31,1.8,3.08,3.08.77,1.28,1.16,2.7,1.16,4.24v23.66c0,1.54-.38,2.95-1.16,4.24-.77,1.28-1.8,2.31-3.08,3.08-1.28.77-2.72,1.15-4.3,1.15H8.47c-1.54,0-2.95-.38-4.23-1.15ZM8.47,48.16h24.36c.75,0,1.39-.27,1.92-.8s.8-1.18.8-1.92v-23.66c0-.75-.27-1.39-.8-1.92-.54-.54-1.18-.8-1.92-.8H8.47c-.75,0-1.39.27-1.92.8s-.8,1.18-.8,1.92v23.66c0,.75.27,1.39.8,1.92.54.54,1.18.8,1.92.8Z"/>
      <path class="cls-1" d="M48.65,70V13.3h32.9c1.54,0,2.95.38,4.24,1.16,1.28.77,2.31,1.8,3.08,3.08.77,1.28,1.15,2.7,1.15,4.24v23.66c0,1.54-.38,2.95-1.15,4.24-.77,1.28-1.8,2.31-3.08,3.08-1.28.77-2.7,1.15-4.24,1.15h-27.16v16.1h-5.74ZM57.19,48.16h24.36c.75,0,1.39-.27,1.92-.8s.81-1.18.81-1.92v-23.66c0-.75-.27-1.39-.81-1.92-.54-.54-1.18-.8-1.92-.8h-24.36c-.75,0-1.4.27-1.96.8-.56.54-.84,1.18-.84,1.92v23.66c0,.75.28,1.39.84,1.92.56.54,1.21.8,1.96.8Z"/>
      <path class="cls-1" d="M99.15,52.75c-1.28-.77-2.31-1.8-3.08-3.08-.77-1.28-1.16-2.7-1.16-4.24v-23.66c0-1.54.38-2.95,1.16-4.24.77-1.28,1.8-2.31,3.08-3.08,1.28-.77,2.69-1.16,4.23-1.16h24.36c1.59,0,3.02.38,4.3,1.16,1.28.77,2.31,1.8,3.08,3.08.77,1.28,1.16,2.7,1.16,4.24v14.7h-35.63v8.96c0,.75.27,1.39.8,1.92.54.54,1.18.8,1.92.8h32.9v5.74h-32.9c-1.54,0-2.95-.38-4.23-1.15ZM100.66,30.73h29.82v-8.96c0-.75-.27-1.39-.8-1.92-.54-.54-1.18-.8-1.92-.8h-24.36c-.75,0-1.39.27-1.92.8s-.8,1.18-.8,1.92v8.96Z"/>
      <path class="cls-1" d="M143.57,53.9V13.3h32.9c1.54,0,2.95.38,4.24,1.16,1.28.77,2.31,1.8,3.08,3.08.77,1.28,1.15,2.7,1.15,4.24v32.13h-5.74V21.77c0-.75-.27-1.39-.81-1.92-.54-.54-1.18-.8-1.92-.8h-24.36c-.75,0-1.4.27-1.96.8-.56.54-.84,1.18-.84,1.92v32.13h-5.74Z"/>
      <path class="cls-1" d="M196.38,52.75c-1.28-.77-2.3-1.8-3.04-3.08-.75-1.28-1.12-2.7-1.12-4.24V0h5.74v13.3h17.57v5.74h-17.57v26.39c0,.75.27,1.39.8,1.92.54.54,1.18.8,1.93.8h14.84v5.74h-14.84c-1.59,0-3.02-.38-4.31-1.15Z"/>
      <path class="cls-1" d="M225.01,52.75c-1.28-.77-2.31-1.8-3.08-3.08-.77-1.28-1.16-2.7-1.16-4.24v-23.66c0-1.54.38-2.95,1.16-4.24.77-1.28,1.8-2.31,3.08-3.08,1.28-.77,2.69-1.16,4.23-1.16h24.36c1.59,0,3.02.38,4.3,1.16,1.28.77,2.31,1.8,3.08,3.08.77,1.28,1.16,2.7,1.16,4.24v14.7h-35.63v8.96c0,.75.27,1.39.8,1.92.54.54,1.18.8,1.92.8h32.9v5.74h-32.9c-1.54,0-2.95-.38-4.23-1.15ZM226.52,30.73h29.82v-8.96c0-.75-.27-1.39-.8-1.92-.54-.54-1.18-.8-1.92-.8h-24.36c-.75,0-1.39.27-1.92.8s-.8,1.18-.8,1.92v8.96Z"/>
      <path class="cls-1" d="M268.94,53.9V21.77c0-1.54.38-2.95,1.15-4.24.77-1.28,1.8-2.31,3.08-3.08,1.28-.77,2.7-1.16,4.24-1.16h22.82v5.74h-22.82c-.75,0-1.39.27-1.92.8-.54.54-.81,1.18-.81,1.92v32.13h-5.74Z"/>
      <path class="cls-1" d="M304.85,53.9V8.47c0-1.59.37-3.02,1.12-4.3.75-1.28,1.76-2.3,3.04-3.04,1.28-.75,2.72-1.12,4.3-1.12h14.84v5.74h-14.84c-.75,0-1.39.27-1.92.81s-.8,1.18-.8,1.92v4.83h17.57v5.74h-17.57v34.86h-5.74Z"/>
      <path class="cls-1" d="M341.74,53.9c-1.54,0-2.95-.38-4.24-1.15-1.28-.77-2.31-1.8-3.08-3.08-.77-1.28-1.15-2.7-1.15-4.24v-14.7h35.56v-8.96c0-.75-.27-1.39-.8-1.92-.54-.54-1.18-.8-1.92-.8h-32.83v-5.74h32.83c1.59,0,3.02.38,4.3,1.16,1.28.77,2.31,1.8,3.08,3.08.77,1.28,1.15,2.7,1.15,4.24v32.13h-32.9ZM341.74,48.16h27.09v-11.69h-29.82v8.96c0,.75.27,1.39.81,1.92.54.54,1.18.8,1.92.8Z"/>
      <path class="cls-1" d="M385.31,52.75c-1.28-.77-2.31-1.8-3.08-3.08-.77-1.28-1.16-2.7-1.16-4.24v-23.66c0-1.54.39-2.95,1.16-4.24.77-1.28,1.8-2.31,3.08-3.08,1.28-.77,2.7-1.16,4.24-1.16h32.76v5.74h-32.76c-.75,0-1.39.27-1.92.8-.54.54-.81,1.18-.81,1.92v23.66c0,.75.27,1.39.81,1.92.54.54,1.18.8,1.92.8h32.9v5.74h-32.9c-1.54,0-2.95-.38-4.24-1.15Z"/>
      <path class="cls-1" d="M432.21,52.75c-1.28-.77-2.31-1.8-3.08-3.08-.77-1.28-1.16-2.7-1.16-4.24v-23.66c0-1.54.38-2.95,1.16-4.24.77-1.28,1.8-2.31,3.08-3.08,1.28-.77,2.69-1.16,4.23-1.16h24.36c1.59,0,3.02.38,4.3,1.16,1.28.77,2.31,1.8,3.08,3.08.77,1.28,1.16,2.7,1.16,4.24v14.7h-35.63v8.96c0,.75.27,1.39.8,1.92.54.54,1.18.8,1.92.8h32.9v5.74h-32.9c-1.54,0-2.95-.38-4.23-1.15ZM433.71,30.73h29.82v-8.96c0-.75-.27-1.39-.8-1.92-.54-.54-1.18-.8-1.92-.8h-24.36c-.75,0-1.39.27-1.92.8s-.8,1.18-.8,1.92v8.96Z"/>
    </g>
  </g>
</svg>