<?xml version="1.0" encoding="UTF-8"?>
<svg id="Layer_1" xmlns="http://www.w3.org/2000/svg" version="1.1" viewBox="0 0 226.8 119.1">
  <!-- Generator: Adobe Illustrator 29.7.1, SVG Export Plug-In . SVG Version: 2.1.1 Build 8)  -->
  <defs>
    <style>
      .st0, .st1 {
        fill: none;
      }

      .st2 {
        letter-spacing: 0em;
      }

      .st2, .st3, .st4 {
        font-size: 8px;
      }

      .st2, .st3, .st4, .st5, .st6, .st7, .st8, .st9 {
        isolation: isolate;
      }

      .st2, .st3, .st4, .st6, .st7, .st9 {
        font-family: ArialMT, Arial;
      }

      .st3 {
        letter-spacing: -.1em;
      }

      .st4 {
        letter-spacing: 0em;
      }

      .st6 {
        letter-spacing: 0em;
      }

      .st6, .st7, .st9 {
        font-size: 10.2px;
      }

      .st7 {
        letter-spacing: 0em;
      }

      .st1 {
        stroke: #000;
        stroke-linecap: round;
        stroke-linejoin: round;
        stroke-width: .5px;
      }

      .st8 {
        font-family: KozGoPr6N-Regular-83pv-RKSJ-H, 'Kozuka Gothic Pr6N';
        font-size: 12px;
      }
    </style>
  </defs>
  <g id="Layer_2">
    <g id="Layer_3">
      <line class="st1" x1="199.5" y1="31.6" x2="150.5" y2="31.6"/>
      <line class="st1" x1="130" y1="31.6" x2="90.1" y2="31.6"/>
      <line class="st1" x1="60.6" y1="31.6" x2="56" y2="31.6"/>
      <line class="st1" x1="32.8" y1="31.6" x2="27.7" y2="31.6"/>
      <polyline class="st1" points="81.9 23.6 82.5 23.6 82.5 25.9"/>
      <line class="st1" x1="61.6" y1="26.5" x2="60.5" y2="26.5"/>
      <line class="st1" x1="61.6" y1="26.4" x2="60.5" y2="26.4"/>
      <line class="st1" x1="60.9" y1="23.6" x2="60.5" y2="23.6"/>
      <polyline class="st1" points="60.5 28 60.7 28 60.7 28.6 60.5 28.6"/>
      <line class="st1" x1="60.7" y1="28.6" x2="60.7" y2="29.4"/>
      <path class="st1" d="M129.4,31.5c.1-.2.2-.4.4-.5"/>
      <path class="st1" d="M94.9,31.1v.2"/>
      <line class="st1" x1="82.5" y1="23.6" x2="82.8" y2="23.6"/>
      <path class="st1" d="M138,18.9c-.3-.9-.8-1.7-1.3-2.4"/>
      <path class="st1" d="M200,3.1h-1.5"/>
      <path class="st1" d="M198.6,49.6h1.5"/>
      <line class="st1" x1="26.1" y1="3" x2="26.4" y2="3"/>
      <path class="st1" d="M26,3C13.1,3.3,2.9,13.8,3.1,26.7c.2,12.9,10.8,23.1,23.6,22.9"/>
      <line class="st1" x1="198.6" y1="49.6" x2="26.8" y2="49.6"/>
      <line class="st1" x1="61.5" y1="29.4" x2="60.5" y2="29.4"/>
      <line class="st1" x1="60.5" y1="29.6" x2="61.5" y2="29.6"/>
      <line class="st1" x1="60.5" y1="29.4" x2="61.5" y2="29.4"/>
      <line class="st1" x1="60.5" y1="31.4" x2="60.8" y2="31.4"/>
      <line class="st1" x1="61.5" y1="29.6" x2="60.5" y2="29.6"/>
      <line class="st1" x1="97.9" y1="31.6" x2="97.9" y2="31.6"/>
      <line class="st1" x1="96.1" y1="31.6" x2="96.2" y2="31.6"/>
      <line class="st1" x1="96" y1="31.5" x2="96" y2="31.5"/>
      <line class="st1" x1="96" y1="31.6" x2="96" y2="31.6"/>
      <line class="st1" x1="96" y1="31.5" x2="96" y2="31.5"/>
      <line class="st1" x1="96" y1="31.6" x2="96" y2="31.6"/>
      <line class="st1" x1="96" y1="31.5" x2="96" y2="31.5"/>
      <line class="st1" x1="98" y1="31.6" x2="97.6" y2="31.6"/>
      <line class="st1" x1="96.9" y1="31.6" x2="96" y2="31.6"/>
      <path class="st1" d="M96,31.4c0-.1,0-.3,0-.4"/>
      <polyline class="st1" points="96 31.6 96 31.6 96 31.5"/>
      <path class="st1" d="M97.9,31c0,.2,0,.3,0,.5"/>
      <polyline class="st1" points="98 31.6 98 31.6 98 31.5"/>
      <line class="st1" x1="96.1" y1="31.6" x2="96.1" y2="31.6"/>
      <line class="st1" x1="97.9" y1="31.6" x2="97.9" y2="31.6"/>
      <polyline class="st1" points="94.7 31 94.7 31.5 94.7 31.6"/>
      <line class="st1" x1="92.5" y1="31.5" x2="92.5" y2="31"/>
      <polyline class="st1" points="94.3 31 94.3 31.5 94.2 31.6"/>
      <polyline class="st1" points="92.5 31.5 92.5 31.6 92.5 31.6"/>
      <polyline class="st1" points="91 31.6 91.1 31.5 91.1 31.2"/>
      <polyline class="st1" points="107.2 31 107.2 31.5 107.7 31.5"/>
      <line class="st1" x1="108.5" y1="31.5" x2="109.5" y2="31.5"/>
      <line class="st1" x1="110.2" y1="31.5" x2="111" y2="31.5"/>
      <line class="st1" x1="112.4" y1="31.5" x2="113" y2="31.5"/>
      <line class="st1" x1="113.8" y1="31.5" x2="114.9" y2="31.5"/>
      <polyline class="st1" points="115.6 31.5 116.1 31.5 116.1 31"/>
      <polyline class="st1" points="118.2 31 118.2 31.5 118.4 31.5"/>
      <line class="st1" x1="119.4" y1="31.5" x2="120.3" y2="31.5"/>
      <line class="st1" x1="121.2" y1="31.5" x2="122" y2="31.5"/>
      <line class="st1" x1="123.3" y1="31.5" x2="123.9" y2="31.5"/>
      <line class="st1" x1="124.8" y1="31.5" x2="125.7" y2="31.5"/>
      <polyline class="st1" points="126.5 31.5 127.1 31.5 127.1 31"/>
      <line class="st1" x1="114.9" y1="31.6" x2="114.9" y2="31.1"/>
      <polyline class="st1" points="126.4 31.1 126.5 31.1 126.5 31.6"/>
      <polyline class="st1" points="124.6 31.1 124.8 31.1 124.8 31.6"/>
      <polyline class="st1" points="110.2 31.1 110.2 31.1 110.2 31.6"/>
      <polyline class="st1" points="121 31.1 121.2 31.1 121.2 31.6"/>
      <polyline class="st1" points="108.4 31.1 108.5 31.1 108.5 31.6"/>
      <polyline class="st1" points="119.2 31.1 119.4 31.1 119.4 31.6"/>
      <line class="st1" x1="111" y1="31.1" x2="111" y2="31.6"/>
      <line class="st1" x1="112.4" y1="31.1" x2="112.4" y2="31.6"/>
      <line class="st1" x1="111" y1="31.1" x2="111.3" y2="31.1"/>
      <line class="st1" x1="112" y1="31.1" x2="112.4" y2="31.1"/>
      <line class="st1" x1="122" y1="31.1" x2="122" y2="31.6"/>
      <line class="st1" x1="123.3" y1="31.1" x2="123.3" y2="31.6"/>
      <line class="st1" x1="122" y1="31.1" x2="122.1" y2="31.1"/>
      <line class="st1" x1="122.8" y1="31.1" x2="123.3" y2="31.1"/>
      <polyline class="st1" points="91.1 31 91.1 31.5 91.1 31.6 91.2 31.6"/>
      <line class="st1" x1="105.2" y1="31.6" x2="105.3" y2="31.5"/>
      <polyline class="st1" points="103.4 31 103.4 31.5 103.4 31.6 103.5 31.6"/>
      <line class="st1" x1="105.3" y1="31" x2="105.3" y2="31.5"/>
      <polyline class="st1" points="110.3 31.5 110.3 31.5 110.3 31.6 110.4 31.6"/>
      <polyline class="st1" points="121.3 31.5 121.3 31.5 121.3 31.6 121.3 31.6"/>
      <polyline class="st1" points="128.1 31.6 128.1 31.6 128.1 31.5 128.1 31"/>
      <line class="st1" x1="105.3" y1="31.6" x2="105.3" y2="31.6"/>
      <line class="st1" x1="103.4" y1="31.6" x2="103.4" y2="31.6"/>
      <line class="st1" x1="103.4" y1="31.5" x2="103.4" y2="31.5"/>
      <line class="st1" x1="103.4" y1="31.6" x2="103.4" y2="31.6"/>
      <line class="st1" x1="103.4" y1="31.5" x2="103.4" y2="31.5"/>
      <line class="st1" x1="103.4" y1="31.6" x2="103.4" y2="31.6"/>
      <line class="st1" x1="103.4" y1="31.5" x2="103.4" y2="31.5"/>
      <path class="st1" d="M103.3,31.4c0-.2,0-.3,0-.5"/>
      <polyline class="st1" points="103.4 31.6 103.4 31.6 103.4 31.5"/>
      <path class="st1" d="M105.2,31c0,.2,0,.3,0,.5"/>
      <polyline class="st1" points="105.3 31.6 105.3 31.6 105.3 31.5"/>
      <line class="st1" x1="103.4" y1="31.6" x2="103.4" y2="31.6"/>
      <line class="st1" x1="105.3" y1="31.6" x2="105.3" y2="31.6"/>
      <line class="st1" x1="26.8" y1="29.4" x2="28.3" y2="29.4"/>
      <line class="st1" x1="199.6" y1="11.4" x2="150.3" y2="11.4"/>
      <line class="st1" x1="198.4" y1="29.4" x2="199.6" y2="29.4"/>
      <path class="st1" d="M206.5,26.3c0,2.3,1.9,4.1,4.2,4.1,2.3,0,4.1-1.9,4.1-4.2,0-2.3-1.9-4.1-4.1-4.1-2.3,0-4.2,1.9-4.2,4.1s0,0,0,0"/>
      <line class="st1" x1="136.8" y1="15.2" x2="137.7" y2="14.3"/>
      <path class="st1" d="M20.6,26.3c0-2.3-1.9-4.2-4.1-4.2-2.3,0-4.2,1.9-4.2,4.1,0,2.3,1.9,4.2,4.1,4.2,0,0,0,0,0,0,2.3,0,4.2-1.9,4.2-4.1"/>
      <line class="st1" x1="26.7" y1="28.7" x2="26.7" y2="26.1"/>
      <line class="st1" x1="138.1" y1="16.2" x2="138.1" y2="23.9"/>
      <path class="st1" d="M199.6,11.5c0,0,0-.1,0-.2"/>
      <path class="st1" d="M85.9,12.2c-2.2,0-3.9,1.8-3.9,4"/>
      <line class="st1" x1="85.9" y1="12.3" x2="134.2" y2="12.3"/>
      <path class="st1" d="M138.1,16.2c0-2.2-1.7-4-3.9-4"/>
      <line class="st1" x1="81.9" y1="23.9" x2="81.9" y2="16.2"/>
      <path class="st1" d="M31.3,21.3c-2.6,0-4.7,2.1-4.7,4.7"/>
      <line class="st1" x1="31.3" y1="21.4" x2="56.9" y2="21.4"/>
      <path class="st1" d="M61.6,26c0-2.6-2.1-4.7-4.7-4.7"/>
      <line class="st1" x1="61.6" y1="26.1" x2="61.6" y2="28.7"/>
      <path class="st1" d="M150.3,30.6c0,1.6,1.3,2.9,2.9,2.9"/>
      <line class="st1" x1="196.8" y1="33.5" x2="153.2" y2="33.5"/>
      <path class="st1" d="M196.7,33.5c1.6,0,2.9-1.3,2.9-2.9h0"/>
      <line class="st1" x1="199.6" y1="11.5" x2="199.6" y2="30.6"/>
      <line class="st1" x1="150.3" y1="30.6" x2="150.3" y2="11.5"/>
      <path class="st1" d="M150.3,11.3c0,0,0,.1,0,.2"/>
      <path class="st1" d="M22.8,26.3c0-3.5-2.8-6.3-6.3-6.3s-6.3,2.8-6.3,6.3c0,3.5,2.8,6.3,6.3,6.3h0c3.5,0,6.3-2.8,6.3-6.3h0"/>
      <line class="st1" x1="200.8" y1="45.3" x2="26.4" y2="45.3"/>
      <path class="st1" d="M200.8,45.2c10.5,0,18.9-8.5,18.9-18.9,0-10.5-8.5-18.9-18.9-18.9"/>
      <line class="st1" x1="26.4" y1="7.4" x2="200.8" y2="7.4"/>
      <path class="st1" d="M26.5,7.4c-10.5-.2-19.1,8-19.4,18.5-.2,10.5,8,19.1,18.5,19.4.3,0,.6,0,.9,0"/>
      <path class="st1" d="M217,26.3c0-3.5-2.8-6.3-6.3-6.3s-6.3,2.8-6.3,6.3,2.8,6.3,6.3,6.3h0c3.5,0,6.3-2.8,6.3-6.3"/>
      <line class="st1" x1="90.1" y1="31.6" x2="86.6" y2="28.4"/>
      <path class="st1" d="M86.5,28.4c-.2-.2-.4-.3-.7-.4"/>
      <line class="st1" x1="85.8" y1="28" x2="84.8" y2="27.8"/>
      <path class="st1" d="M81.9,23.9c0,1.8,1.2,3.3,2.8,3.8"/>
      <path class="st1" d="M135.2,27.8c1.7-.5,2.9-2.1,2.9-3.9"/>
      <line class="st1" x1="135.2" y1="27.8" x2="134.2" y2="28"/>
      <path class="st1" d="M134.2,28c-.3,0-.5.2-.7.4"/>
      <line class="st1" x1="133.5" y1="28.4" x2="129.9" y2="31.6"/>
      <path class="st1" d="M127.3,32.6c1,0,1.9-.4,2.6-1"/>
      <line class="st1" x1="127.3" y1="32.6" x2="92.8" y2="32.6"/>
      <path class="st1" d="M90.1,31.6c.7.6,1.7,1,2.6,1"/>
      <path class="st1" d="M56.9,33.3c2.6,0,4.7-2.1,4.7-4.7"/>
      <line class="st1" x1="56.9" y1="33.3" x2="31.3" y2="33.3"/>
      <path class="st1" d="M26.6,28.6c0,2.6,2.1,4.7,4.7,4.7h0"/>
      <line class="st1" x1="26.4" y1="49.6" x2="200.8" y2="49.6"/>
      <path class="st1" d="M200.8,49.5c12.9,0,23.3-10.4,23.3-23.3s-10.4-23.3-23.3-23.3"/>
      <line class="st1" x1="200.8" y1="3" x2="26.4" y2="3"/>
      <line class="st1" x1="27" y1="30.3" x2="27" y2="29.4"/>
      <line class="st1" x1="89.5" y1="31" x2="92.6" y2="31"/>
      <line class="st1" x1="84.6" y1="26.1" x2="84.6" y2="27.7"/>
      <line class="st1" x1="135.1" y1="27.8" x2="135.1" y2="26.1"/>
      <line class="st1" x1="127.1" y1="31" x2="130.6" y2="31"/>
      <polyline class="st1" points="135.1 26.1 131.8 27.8 131.8 29.9"/>
      <polyline class="st1" points="87.8 29.6 87.8 27.8 84.6 26.1"/>
      <polyline class="st1" points="94.7 21 94.6 20.7 94.4 20.7 94.1 20.7 94 21 94.1 21.3 94.4 21.3 94.6 21.3 94.7 21"/>
      <polyline class="st1" points="96.4 21 96.3 20.7 96 20.7 95.8 20.7 95.7 21 95.8 21.3 96 21.3 96.3 21.3 96.4 21"/>
      <polyline class="st1" points="98.2 21 98 20.7 97.8 20.7 97.6 20.7 97.4 21 97.6 21.3 97.8 21.3 98 21.3 98.2 21"/>
      <polyline class="st1" points="99.8 21 99.8 20.7 99.5 20.7 99.2 20.7 99.2 21 99.2 21.3 99.5 21.3 99.8 21.3 99.8 21"/>
      <polyline class="st1" points="101.6 21 101.4 20.7 101.2 20.7 101 20.7 100.8 21 101 21.3 101.2 21.3 101.4 21.3 101.6 21"/>
      <polyline class="st1" points="103.3 21 103.2 20.7 103 20.7 102.7 20.7 102.6 21 102.7 21.3 103 21.3 103.2 21.3 103.3 21"/>
      <polyline class="st1" points="105 21 105 20.7 104.7 20.7 104.4 20.7 104.3 21 104.4 21.3 104.7 21.3 105 21.3 105 21"/>
      <polyline class="st1" points="106.7 21 106.6 20.7 106.4 20.7 106.1 20.7 106 21 106.1 21.3 106.4 21.3 106.6 21.3 106.7 21"/>
      <polyline class="st1" points="108.5 21 108.4 20.7 108.1 20.7 107.9 20.7 107.8 21 107.9 21.3 108.1 21.3 108.4 21.3 108.5 21"/>
      <polyline class="st1" points="110.2 21 110.1 20.7 109.8 20.7 109.6 20.7 109.5 21 109.6 21.3 109.8 21.3 110.1 21.3 110.2 21"/>
      <polyline class="st1" points="111.9 21 111.8 20.7 111.6 20.7 111.3 20.7 111.2 21 111.3 21.3 111.6 21.3 111.8 21.3 111.9 21"/>
      <polyline class="st1" points="113.7 21 113.5 20.7 113.3 20.7 113 20.7 112.9 21 113 21.3 113.3 21.3 113.5 21.3 113.7 21"/>
      <polyline class="st1" points="115.3 21 115.2 20.7 115 20.7 114.7 20.7 114.6 21 114.7 21.3 115 21.3 115.2 21.3 115.3 21"/>
      <polyline class="st1" points="117.1 21 117 20.7 116.7 20.7 116.5 20.7 116.4 21 116.5 21.3 116.7 21.3 117 21.3 117.1 21"/>
      <polyline class="st1" points="118.8 21 118.7 20.7 118.4 20.7 118.2 20.7 118.1 21 118.2 21.3 118.4 21.3 118.7 21.3 118.8 21"/>
      <polyline class="st1" points="120.5 21 120.4 20.7 120.1 20.7 119.9 20.7 119.8 21 119.9 21.3 120.1 21.3 120.4 21.3 120.5 21"/>
      <polyline class="st1" points="122.3 21 122.1 20.7 121.9 20.7 121.7 20.7 121.5 21 121.7 21.3 121.9 21.3 122.1 21.3 122.3 21"/>
      <polyline class="st1" points="123.9 21 123.9 20.7 123.6 20.7 123.3 20.7 123.3 21 123.3 21.3 123.6 21.3 123.9 21.3 123.9 21"/>
      <polyline class="st1" points="125.7 21 125.6 20.7 125.3 20.7 125.1 20.7 124.9 21 125.1 21.3 125.3 21.3 125.6 21.3 125.7 21"/>
      <line class="st1" x1="93.3" y1="19.6" x2="126.4" y2="19.6"/>
      <line class="st1" x1="126.4" y1="22.5" x2="93.3" y2="22.5"/>
      <path class="st1" d="M93.3,19.6c-.8,0-1.4.6-1.4,1.4,0,.8.6,1.4,1.4,1.4h0"/>
      <path class="st1" d="M126.3,22.4c.8,0,1.4-.6,1.4-1.4,0-.8-.6-1.4-1.4-1.4h0"/>
      <line class="st1" x1="126.4" y1="31.1" x2="126.4" y2="31.6"/>
      <line class="st1" x1="125.7" y1="31.1" x2="125.7" y2="31.6"/>
      <line class="st1" x1="126.4" y1="31" x2="126.4" y2="31.1"/>
      <line class="st1" x1="125.7" y1="31" x2="125.7" y2="31.1"/>
      <line class="st1" x1="94" y1="31.1" x2="94" y2="31.6"/>
      <line class="st1" x1="93.3" y1="31.1" x2="93.3" y2="31.6"/>
      <line class="st1" x1="94" y1="31" x2="94" y2="31.1"/>
      <line class="st1" x1="93.3" y1="31" x2="93.3" y2="31.1"/>
      <line class="st1" x1="95.8" y1="31.1" x2="95.8" y2="31.6"/>
      <line class="st1" x1="95.1" y1="31.1" x2="95.1" y2="31.6"/>
      <line class="st1" x1="95.8" y1="31" x2="95.8" y2="31.1"/>
      <line class="st1" x1="95.1" y1="31" x2="95.1" y2="31.1"/>
      <line class="st1" x1="97.6" y1="31.1" x2="97.6" y2="31.6"/>
      <line class="st1" x1="96.9" y1="31.1" x2="96.9" y2="31.6"/>
      <line class="st1" x1="97.6" y1="31" x2="97.6" y2="31.1"/>
      <line class="st1" x1="96.9" y1="31" x2="96.9" y2="31.1"/>
      <line class="st1" x1="99.4" y1="31.1" x2="99.4" y2="31.6"/>
      <line class="st1" x1="98.6" y1="31.1" x2="98.6" y2="31.6"/>
      <line class="st1" x1="99.4" y1="31" x2="99.4" y2="31.1"/>
      <line class="st1" x1="98.6" y1="31" x2="98.6" y2="31.1"/>
      <line class="st1" x1="101.2" y1="31.1" x2="101.2" y2="31.6"/>
      <line class="st1" x1="100.5" y1="31.1" x2="100.5" y2="31.6"/>
      <line class="st1" x1="101.2" y1="31" x2="101.2" y2="31.1"/>
      <line class="st1" x1="100.5" y1="31" x2="100.5" y2="31.1"/>
      <line class="st1" x1="103" y1="31.1" x2="103" y2="31.6"/>
      <line class="st1" x1="102.3" y1="31.1" x2="102.3" y2="31.6"/>
      <line class="st1" x1="103" y1="31" x2="103" y2="31.1"/>
      <line class="st1" x1="102.3" y1="31" x2="102.3" y2="31.1"/>
      <line class="st1" x1="104.8" y1="31.1" x2="104.8" y2="31.6"/>
      <line class="st1" x1="104.1" y1="31.1" x2="104.1" y2="31.6"/>
      <line class="st1" x1="104.8" y1="31" x2="104.8" y2="31.1"/>
      <line class="st1" x1="104.1" y1="31" x2="104.1" y2="31.1"/>
      <line class="st1" x1="106.6" y1="31.1" x2="106.6" y2="31.6"/>
      <line class="st1" x1="105.9" y1="31.1" x2="105.9" y2="31.6"/>
      <line class="st1" x1="106.6" y1="31" x2="106.6" y2="31.1"/>
      <line class="st1" x1="105.9" y1="31" x2="105.9" y2="31.1"/>
      <line class="st1" x1="108.4" y1="31.1" x2="108.4" y2="31.6"/>
      <line class="st1" x1="107.7" y1="31.1" x2="107.7" y2="31.6"/>
      <line class="st1" x1="108.4" y1="31" x2="108.4" y2="31.1"/>
      <line class="st1" x1="107.7" y1="31" x2="107.7" y2="31.1"/>
      <line class="st1" x1="110.2" y1="31.1" x2="110.2" y2="31.6"/>
      <line class="st1" x1="109.5" y1="31.1" x2="109.5" y2="31.6"/>
      <line class="st1" x1="110.2" y1="31" x2="110.2" y2="31.1"/>
      <line class="st1" x1="109.5" y1="31" x2="109.5" y2="31.1"/>
      <line class="st1" x1="112" y1="31.1" x2="112" y2="31.6"/>
      <line class="st1" x1="111.3" y1="31.1" x2="111.3" y2="31.6"/>
      <line class="st1" x1="112" y1="31" x2="112" y2="31.1"/>
      <line class="st1" x1="111.3" y1="31" x2="111.3" y2="31.1"/>
      <line class="st1" x1="113.8" y1="31.1" x2="113.8" y2="31.6"/>
      <line class="st1" x1="113" y1="31.1" x2="113" y2="31.6"/>
      <line class="st1" x1="113.8" y1="31" x2="113.8" y2="31.1"/>
      <line class="st1" x1="113" y1="31" x2="113" y2="31.1"/>
      <line class="st1" x1="115.6" y1="31.1" x2="115.6" y2="31.6"/>
      <line class="st1" x1="114.9" y1="31.1" x2="114.9" y2="31.6"/>
      <line class="st1" x1="115.6" y1="31" x2="115.6" y2="31.1"/>
      <line class="st1" x1="114.9" y1="31" x2="114.9" y2="31.1"/>
      <line class="st1" x1="117.4" y1="31.1" x2="117.4" y2="31.6"/>
      <line class="st1" x1="116.7" y1="31.1" x2="116.7" y2="31.6"/>
      <line class="st1" x1="117.4" y1="31" x2="117.4" y2="31.1"/>
      <line class="st1" x1="116.7" y1="31" x2="116.7" y2="31.1"/>
      <line class="st1" x1="119.2" y1="31.1" x2="119.2" y2="31.6"/>
      <line class="st1" x1="118.5" y1="31.1" x2="118.5" y2="31.6"/>
      <line class="st1" x1="119.2" y1="31" x2="119.2" y2="31.1"/>
      <line class="st1" x1="118.5" y1="31" x2="118.5" y2="31.1"/>
      <line class="st1" x1="121" y1="31.1" x2="121" y2="31.6"/>
      <line class="st1" x1="120.3" y1="31.1" x2="120.3" y2="31.6"/>
      <line class="st1" x1="121" y1="31" x2="121" y2="31.1"/>
      <line class="st1" x1="120.3" y1="31" x2="120.3" y2="31.1"/>
      <line class="st1" x1="122.8" y1="31.1" x2="122.8" y2="31.6"/>
      <line class="st1" x1="122.1" y1="31.1" x2="122.1" y2="31.6"/>
      <line class="st1" x1="122.8" y1="31" x2="122.8" y2="31.1"/>
      <line class="st1" x1="122.1" y1="31" x2="122.1" y2="31.1"/>
      <line class="st1" x1="124.6" y1="31.1" x2="124.6" y2="31.6"/>
      <line class="st1" x1="123.9" y1="31.1" x2="123.9" y2="31.6"/>
      <line class="st1" x1="124.6" y1="31" x2="124.6" y2="31.1"/>
      <line class="st1" x1="123.9" y1="31" x2="123.9" y2="31.1"/>
      <line class="st1" x1="127.1" y1="31" x2="92.6" y2="31"/>
      <polyline class="st1" points="82.8 26.5 82.8 23.4 82.8 13.9"/>
      <line class="st1" x1="84.6" y1="23.1" x2="84.6" y2="13.9"/>
      <path class="st1" d="M82.8,23.4c0,1.3.8,2.4,2.1,2.8"/>
      <path class="st1" d="M90.7,30.2c.5.5,1.2.7,1.9.7"/>
      <line class="st1" x1="90.7" y1="30.3" x2="87.1" y2="27.1"/>
      <path class="st1" d="M87,27.1c-.3-.3-.7-.5-1.1-.6"/>
      <line class="st1" x1="86" y1="26.5" x2="84.9" y2="26.1"/>
      <path class="st1" d="M84.6,23.1c0,.6.4,1.2,1,1.4"/>
      <path class="st1" d="M91.8,28.8c.3.2.6.4.9.4"/>
      <line class="st1" x1="91.8" y1="28.9" x2="87.7" y2="25.2"/>
      <path class="st1" d="M87.6,25.3c-.2-.1-.3-.2-.6-.3"/>
      <line class="st1" x1="87.2" y1="24.9" x2="85.7" y2="24.5"/>
      <path class="st1" d="M127,31c.7,0,1.4-.3,1.9-.7"/>
      <line class="st1" x1="132.6" y1="27.1" x2="129" y2="30.3"/>
      <path class="st1" d="M133.6,26.5c-.4.1-.8.3-1.1.6"/>
      <line class="st1" x1="134.8" y1="26.1" x2="133.7" y2="26.5"/>
      <path class="st1" d="M134.8,26.1c1.2-.3,2.1-1.5,2.1-2.8"/>
      <line class="st1" x1="136.8" y1="13.9" x2="136.8" y2="23.4"/>
      <path class="st1" d="M136.8,13.8c0-.2,0-.4,0-.6"/>
      <path class="st1" d="M82.8,13.6v.2"/>
      <path class="st1" d="M85.6,12.7c-.6,0-1.1.5-1.1,1.1"/>
      <line class="st1" x1="85.7" y1="12.8" x2="134" y2="12.8"/>
      <path class="st1" d="M135.1,13.8c0-.6-.5-1.1-1.1-1.1h0"/>
      <line class="st1" x1="135.1" y1="13.9" x2="135.1" y2="23.1"/>
      <path class="st1" d="M134,24.4c.6-.2,1-.7,1-1.4"/>
      <line class="st1" x1="134" y1="24.5" x2="132.5" y2="24.9"/>
      <path class="st1" d="M132.4,25c-.2,0-.4.2-.6.3"/>
      <line class="st1" x1="131.9" y1="25.2" x2="127.9" y2="28.9"/>
      <path class="st1" d="M126.9,29.1c.3,0,.7-.1.9-.4"/>
      <line class="st1" x1="126.9" y1="29.2" x2="92.8" y2="29.2"/>
      <line class="st1" x1="136.8" y1="26.8" x2="136.8" y2="23.4"/>
      <polyline class="st1" points="117 29.2 117 28.4 117 27.8"/>
      <path class="st1" d="M120.9,29.1c.3-.2.4-.4.5-.8"/>
      <line class="st1" x1="121.3" y1="27.8" x2="121.3" y2="28.4"/>
      <path class="st1" d="M117,28.4c0,.3.2.6.5.8"/>
      <line class="st1" x1="121.3" y1="28.4" x2="121.3" y2="29.2"/>
      <polyline class="st1" points="117 27.2 117 27.4 117 27.8"/>
      <polyline class="st1" points="121.3 27.2 121.3 27.4 121.3 27.8"/>
      <path class="st1" d="M123.8,12.8c-.5.2-.8.5-.8.9"/>
      <line class="st1" x1="122.9" y1="14.4" x2="122.9" y2="13.7"/>
      <line class="st1" x1="127.3" y1="14.4" x2="127.3" y2="13.7"/>
      <path class="st1" d="M127.3,13.7c0-.4-.3-.7-.8-.9"/>
      <line class="st1" x1="122.9" y1="13.7" x2="122.9" y2="12.8"/>
      <line class="st1" x1="127.3" y1="12.8" x2="127.3" y2="13.7"/>
      <polyline class="st1" points="122.9 14.8 122.9 14.7 122.9 14.4"/>
      <polyline class="st1" points="127.3 14.8 127.3 14.7 127.3 14.4"/>
      <polyline class="st1" points="98.3 29.2 98.3 28.4 98.3 27.8"/>
      <path class="st1" d="M98.2,28.4c0,.3.2.6.5.8"/>
      <path class="st1" d="M102.1,29.1c.3-.2.4-.4.5-.8"/>
      <polyline class="st1" points="102.6 27.8 102.6 28.4 102.6 29.2"/>
      <polyline class="st1" points="98.3 27.2 98.3 27.4 98.3 27.8"/>
      <polyline class="st1" points="102.6 27.2 102.6 27.4 102.6 27.8"/>
      <path class="st1" d="M93.1,12.8c-.5.2-.8.5-.8.9"/>
      <line class="st1" x1="92.4" y1="14.4" x2="92.4" y2="13.7"/>
      <line class="st1" x1="96.7" y1="14.4" x2="96.7" y2="13.7"/>
      <path class="st1" d="M96.7,13.7c0-.4-.3-.7-.8-.9"/>
      <line class="st1" x1="92.4" y1="13.7" x2="92.4" y2="12.8"/>
      <line class="st1" x1="96.7" y1="12.8" x2="96.7" y2="13.7"/>
      <polyline class="st1" points="92.4 14.8 92.4 14.7 92.4 14.4"/>
      <polyline class="st1" points="96.7 14.8 96.7 14.7 96.7 14.4"/>
      <line class="st1" x1="117" y1="27.2" x2="121.3" y2="27.2"/>
      <line class="st1" x1="127.3" y1="14.8" x2="122.9" y2="14.8"/>
      <line class="st1" x1="98.3" y1="27.2" x2="102.6" y2="27.2"/>
      <line class="st1" x1="96.7" y1="14.8" x2="92.4" y2="14.8"/>
      <line class="st1" x1="151.2" y1="28.8" x2="151.2" y2="28.8"/>
      <line class="st1" x1="151.2" y1="29.5" x2="151.2" y2="29.5"/>
      <polyline class="st1" points="151.2 30.3 151 29.5 151 28.8"/>
      <path class="st1" d="M151,29.4h0"/>
      <line class="st1" x1="151.2" y1="29.5" x2="151.2" y2="29.5"/>
      <line class="st1" x1="151.2" y1="28.8" x2="151.2" y2="28.8"/>
      <path class="st1" d="M151,28.8h0"/>
      <line class="st1" x1="151" y1="28.8" x2="151.2" y2="28"/>
      <path class="st1" d="M151,29.5h.2"/>
      <path class="st1" d="M151.2,28.7h-.2"/>
      <line class="st1" x1="150.3" y1="27.6" x2="151.2" y2="27.6"/>
      <line class="st1" x1="150.3" y1="28.3" x2="151.2" y2="28.3"/>
      <line class="st1" x1="150.3" y1="30.8" x2="151.2" y2="30.8"/>
      <line class="st1" x1="151.2" y1="31.2" x2="150.4" y2="31.2"/>
      <polyline class="st1" points="150.7 27.5 150.8 27.5 150.8 27.6"/>
      <polyline class="st1" points="150.6 27.5 150.6 27.5 150.6 27.6"/>
      <line class="st1" x1="150.9" y1="27.5" x2="150.9" y2="27.5"/>
      <line class="st1" x1="151" y1="27.5" x2="151" y2="27.5"/>
      <polyline class="st1" points="151.2 27.5 151.1 27.5 151.1 27.6"/>
      <line class="st1" x1="150.6" y1="27.5" x2="150.6" y2="27.6"/>
      <polyline class="st1" points="150.7 27.5 150.7 27.5 150.6 27.5 150.5 27.5 150.5 27.6"/>
      <line class="st1" x1="150.6" y1="27.5" x2="150.6" y2="27.6"/>
      <polyline class="st1" points="150.7 27.6 150.7 27.5 150.7 27.6 150.7 27.5"/>
      <polyline class="st1" points="150.9 27.6 150.9 27.5 150.8 27.5 150.8 27.6"/>
      <line class="st1" x1="150.9" y1="27.5" x2="150.9" y2="27.5"/>
      <line class="st1" x1="151" y1="27.5" x2="151" y2="27.6"/>
      <polyline class="st1" points="150.9 27.6 150.9 27.5 150.9 27.6"/>
      <polyline class="st1" points="151 27.5 150.9 27.5 150.9 27.5"/>
      <line class="st1" x1="151.1" y1="27.5" x2="151.1" y2="27.6"/>
      <polyline class="st1" points="151.1 27.5 151 27.5 151 27.6"/>
      <polyline class="st1" points="151.2 27.5 151.2 27.5 151.2 27.6"/>
      <line class="st1" x1="150.3" y1="27.6" x2="150.3" y2="27.5"/>
      <polyline class="st1" points="164 19.8 164 21.5 164 22 164 22.2"/>
      <polyline class="st1" points="160.4 19.8 160.4 21.5 160.4 22 160.4 22.2 164 22.2"/>
      <polyline class="st1" points="173 19.8 173 21.5 173 22 173 22.2"/>
      <polyline class="st1" points="169.4 19.8 169.4 21.5 169.4 22 169.4 22.2 173 22.2"/>
      <polyline class="st1" points="176.6 19.8 176.6 21.5 176.6 22 176.6 22.2"/>
      <polyline class="st1" points="180.2 19.8 180.2 21.5 180.2 22 180.2 22.2 176.6 22.2"/>
      <polyline class="st1" points="185.6 19.8 185.6 21.5 185.6 22 185.6 22.2"/>
      <polyline class="st1" points="189.2 19.8 189.2 21.5 189.2 22 189.2 22.2 185.6 22.2"/>
      <line class="st1" x1="153" y1="29.7" x2="196.6" y2="29.7"/>
      <line class="st1" x1="153" y1="28.7" x2="196.6" y2="28.7"/>
      <line class="st1" x1="152.3" y1="11.4" x2="152.3" y2="28"/>
      <line class="st1" x1="152.3" y1="29.7" x2="152.3" y2="29.6"/>
      <polyline class="st1" points="151.2 11.4 151.2 28 151.2 31.6"/>
      <path class="st1" d="M152.2,27.9c0,.4.3.7.7.7h0"/>
      <path class="st1" d="M151.2,27.9c0,1,.8,1.8,1.8,1.8,0,0,0,0,0,0"/>
      <line class="st1" x1="197.4" y1="29.7" x2="197.4" y2="29.6"/>
      <line class="st1" x1="197.4" y1="28" x2="197.4" y2="11.4"/>
      <polyline class="st1" points="198.4 31.6 198.4 28 198.4 11.4"/>
      <line class="st1" x1="190.1" y1="28.4" x2="190" y2="27.2"/>
      <line class="st1" x1="181.2" y1="27.2" x2="181.1" y2="28.4"/>
      <line class="st1" x1="181.4" y1="28.5" x2="181.3" y2="27"/>
      <path class="st1" d="M181.4,28.5c0,0,0,.1,0,.2"/>
      <path class="st1" d="M189.8,28.7s0-.1,0-.2"/>
      <line class="st1" x1="190" y1="27" x2="189.8" y2="28.5"/>
      <line class="st1" x1="190" y1="27.8" x2="190.1" y2="28.7"/>
      <line class="st1" x1="181.1" y1="28.7" x2="181.2" y2="27.8"/>
      <line class="st1" x1="189.9" y1="28.7" x2="190" y2="27.7"/>
      <line class="st1" x1="181.3" y1="27.7" x2="181.4" y2="28.7"/>
      <polyline class="st1" points="181 28.7 181.1 28.7 181.1 28.4"/>
      <path class="st1" d="M181.2,27.6c0-.2,0-.1,0,.1"/>
      <path class="st1" d="M181.2,26.9c0-.3,0-.2,0,.2"/>
      <path class="st1" d="M190,27.7c0-.2,0-.3,0-.1"/>
      <polyline class="st1" points="190.1 28.4 190.1 28.7 190.2 28.7"/>
      <path class="st1" d="M190,27.2c0-.5,0-.5,0-.2"/>
      <line class="st1" x1="181.4" y1="11.4" x2="181.3" y2="12"/>
      <line class="st1" x1="190" y1="12" x2="189.9" y2="11.4"/>
      <line class="st1" x1="190.1" y1="11.4" x2="190" y2="11.8"/>
      <line class="st1" x1="181.2" y1="11.8" x2="181.1" y2="11.4"/>
      <path class="st1" d="M181.1,11.7c0,.5,0,.6,0,.2"/>
      <path class="st1" d="M181.1,11.4q0,0,0,0"/>
      <path class="st1" d="M190,11.9c0,.3,0,.2,0-.2"/>
      <path class="st1" d="M190,11.4q0,0,0,0"/>
      <line class="st1" x1="196.3" y1="16.2" x2="197.3" y2="15.3"/>
      <line class="st1" x1="197.3" y1="21.1" x2="196.3" y2="20.2"/>
      <path class="st1" d="M197.3,21.1s0,0,0,0"/>
      <path class="st1" d="M196.1,20c0,0,0,.1.1.2"/>
      <path class="st1" d="M196.2,16.1c0,0-.1.1-.1.2"/>
      <path class="st1" d="M197.2,15.3s0,0,0,0"/>
      <path class="st1" d="M196.6,28.7c.4,0,.7-.3.7-.7h0"/>
      <path class="st1" d="M196.6,29.7c1,0,1.8-.8,1.8-1.8"/>
      <line class="st1" x1="159.5" y1="28.4" x2="159.6" y2="27.2"/>
      <line class="st1" x1="168.5" y1="27.2" x2="168.5" y2="28.4"/>
      <line class="st1" x1="168.2" y1="28.5" x2="168.4" y2="27"/>
      <line class="st1" x1="159.6" y1="27" x2="159.8" y2="28.5"/>
      <path class="st1" d="M159.7,28.5c0,0,0,.1,0,.2"/>
      <path class="st1" d="M168.2,28.7s0-.1,0-.2"/>
      <line class="st1" x1="159.6" y1="27.8" x2="159.6" y2="28.7"/>
      <line class="st1" x1="168.5" y1="28.7" x2="168.5" y2="27.8"/>
      <line class="st1" x1="159.7" y1="28.7" x2="159.6" y2="27.7"/>
      <line class="st1" x1="168.4" y1="27.7" x2="168.3" y2="28.7"/>
      <path class="st1" d="M168.4,27.2c0-.5,0-.5,0-.2"/>
      <path class="st1" d="M168.4,27.7c0-.2,0-.3,0-.1"/>
      <line class="st1" x1="168.5" y1="28.7" x2="168.5" y2="28.4"/>
      <path class="st1" d="M159.6,26.9c0-.3,0-.2,0,.2"/>
      <line class="st1" x1="159.5" y1="28.4" x2="159.5" y2="28.7"/>
      <path class="st1" d="M159.6,27.6c0-.2,0-.1,0,.1"/>
      <line class="st1" x1="168.3" y1="11.4" x2="168.4" y2="12"/>
      <line class="st1" x1="159.6" y1="12" x2="159.7" y2="11.4"/>
      <line class="st1" x1="159.6" y1="11.4" x2="159.6" y2="11.8"/>
      <line class="st1" x1="168.5" y1="11.8" x2="168.5" y2="11.4"/>
      <path class="st1" d="M168.3,11.4q0,0,0,0"/>
      <path class="st1" d="M168.3,11.9c0,.3,0,.2,0-.2"/>
      <path class="st1" d="M159.6,11.4q0,0,0,0"/>
      <path class="st1" d="M159.6,11.7c0,.5,0,.6,0,.2"/>
      <line class="st1" x1="153.4" y1="16.2" x2="152.3" y2="15.3"/>
      <line class="st1" x1="152.3" y1="21.1" x2="153.4" y2="20.2"/>
      <path class="st1" d="M153.3,20.2c0,0,.1-.1.1-.2"/>
      <path class="st1" d="M152.3,21.1s0,0,0,0"/>
      <path class="st1" d="M152.2,15.2s0,0,0,0"/>
      <path class="st1" d="M153.4,16.4c0,0,0-.2-.1-.2"/>
      <line class="st1" x1="190" y1="26.8" x2="181.2" y2="26.8"/>
      <line class="st1" x1="196.1" y1="20" x2="196.1" y2="16.4"/>
      <line class="st1" x1="190" y1="12.2" x2="181.2" y2="12.2"/>
      <line class="st1" x1="159.6" y1="26.8" x2="168.4" y2="26.8"/>
      <line class="st1" x1="153.4" y1="20" x2="153.4" y2="16.4"/>
      <line class="st1" x1="159.6" y1="12.2" x2="168.4" y2="12.2"/>
      <polyline class="st1" points="152.3 31.6 152.3 29.7 153 29.7"/>
      <line class="st1" x1="197.4" y1="29.7" x2="197.4" y2="31.6"/>
      <polyline class="st1" points="156.6 18.9 156.6 14.4 193 14.4 193 18.9 156.6 18.9"/>
      <line class="st1" x1="193.9" y1="19.8" x2="193" y2="18.9"/>
      <polyline class="st1" points="156.6 18.9 155.7 19.8 193.9 19.8"/>
      <line class="st1" x1="156.6" y1="14.4" x2="155.7" y2="13.4"/>
      <path class="st1" d="M155.7,13.4c-.5.5-.8,1.2-.8,2"/>
      <polyline class="st1" points="154.8 15.5 154.8 19.8 155.7 19.8"/>
      <path class="st1" d="M193.9,13.4c-.5-.5-1.3-.8-2-.8"/>
      <line class="st1" x1="191.9" y1="12.6" x2="157.7" y2="12.6"/>
      <path class="st1" d="M157.7,12.6c-.7,0-1.5.3-2,.8"/>
      <line class="st1" x1="193.9" y1="13.4" x2="193" y2="14.4"/>
      <polyline class="st1" points="193.9 19.8 194.8 19.8 194.8 15.5"/>
      <path class="st1" d="M194.8,15.4c0-.8-.3-1.5-.8-2"/>
      <line class="st1" x1="173.2" y1="19.8" x2="173.2" y2="20.3"/>
      <line class="st1" x1="169.2" y1="20.3" x2="169.2" y2="19.8"/>
      <line class="st1" x1="164.2" y1="19.8" x2="164.2" y2="20.3"/>
      <line class="st1" x1="160.2" y1="20.3" x2="160.2" y2="19.8"/>
      <line class="st1" x1="185.5" y1="19.8" x2="185.5" y2="20.3"/>
      <line class="st1" x1="189.4" y1="20.3" x2="189.4" y2="19.8"/>
      <line class="st1" x1="176.4" y1="19.8" x2="176.4" y2="20.3"/>
      <line class="st1" x1="180.4" y1="20.3" x2="180.4" y2="19.8"/>
      <polyline class="st1" points="152.3 15 153.2 15 153.2 16.1"/>
      <polyline class="st1" points="153.2 20.4 153.2 24 152.3 24"/>
      <line class="st1" x1="197.4" y1="24" x2="196.4" y2="24"/>
      <line class="st1" x1="196.4" y1="15" x2="196.4" y2="16.1"/>
      <line class="st1" x1="196.4" y1="20.4" x2="196.4" y2="24"/>
      <line class="st1" x1="197.4" y1="15" x2="196.4" y2="15"/>
      <line class="st1" x1="164.2" y1="20.3" x2="164" y2="20.3"/>
      <line class="st1" x1="160.4" y1="20.3" x2="160.2" y2="20.3"/>
      <line class="st1" x1="189.4" y1="20.3" x2="189.2" y2="20.3"/>
      <line class="st1" x1="185.6" y1="20.3" x2="185.5" y2="20.3"/>
      <line class="st1" x1="180.4" y1="20.3" x2="180.2" y2="20.3"/>
      <line class="st1" x1="176.6" y1="20.3" x2="176.4" y2="20.3"/>
      <line class="st1" x1="173.2" y1="20.3" x2="173" y2="20.3"/>
      <line class="st1" x1="169.4" y1="20.3" x2="169.2" y2="20.3"/>
      <line class="st1" x1="196.6" y1="29.7" x2="197.4" y2="29.7"/>
      <line class="st1" x1="151.2" y1="25.5" x2="150.3" y2="25.5"/>
      <line class="st1" x1="150.3" y1="13.2" x2="151.2" y2="13.2"/>
      <polyline class="st1" points="199.6 25.5 199.5 25.5 198.4 25.5"/>
      <polyline class="st1" points="198.4 13.2 199.5 13.2 199.6 13.2"/>
      <line class="st1" x1="199.5" y1="25.5" x2="199.5" y2="13.2"/>
      <polyline class="st1" points="157.9 31.6 157.9 30.7 191.7 30.7 191.7 31.6"/>
      <line class="st1" x1="157.9" y1="30.7" x2="157.9" y2="29.7"/>
      <line class="st1" x1="191.7" y1="29.7" x2="191.7" y2="30.7"/>
      <line class="st1" x1="112.5" y1="31.5" x2="112.5" y2="31.6"/>
      <line class="st1" x1="108.9" y1="31.5" x2="108.9" y2="31.6"/>
      <line class="st1" x1="105.3" y1="31.6" x2="105.3" y2="31.6"/>
      <line class="st1" x1="101.2" y1="31.4" x2="101.3" y2="31.4"/>
      <line class="st1" x1="114.3" y1="31.5" x2="114.3" y2="31.6"/>
      <polyline class="st1" points="117.9 31.6 117.9 31.4 117.4 31.4"/>
      <line class="st1" x1="123.7" y1="31.5" x2="123.7" y2="31.6"/>
      <line class="st1" x1="125.2" y1="31.5" x2="125.2" y2="31.6"/>
      <line class="st1" x1="57" y1="24.6" x2="57" y2="27.1"/>
      <polyline class="st1" points="31.8 27.1 31.8 24.6 33.3 24.6 55.6 24.6 57 24.6"/>
      <polyline class="st1" points="57 27.1 55.6 27.1 33.3 27.1 31.8 27.1"/>
      <polyline class="st1" points="33.6 25.1 33.6 26.6 55.2 26.6 55.2 25.1 33.6 25.1"/>
      <line class="st1" x1="33.3" y1="27.1" x2="33.6" y2="26.6"/>
      <line class="st1" x1="33.6" y1="25.1" x2="33.3" y2="24.6"/>
      <line class="st1" x1="55.2" y1="26.6" x2="55.6" y2="27.1"/>
      <line class="st1" x1="55.6" y1="24.6" x2="55.2" y2="25.1"/>
      <line class="st1" x1="32.8" y1="30.1" x2="56" y2="30.1"/>
      <path class="st1" d="M56,30.1c1.7,0,3.1-1.4,3.1-3.1h0"/>
      <line class="st1" x1="59.1" y1="27.1" x2="59.1" y2="24.7"/>
      <path class="st1" d="M59.1,24.7c0-1.7-1.4-3.1-3.1-3.1"/>
      <line class="st1" x1="56" y1="21.6" x2="32.8" y2="21.6"/>
      <path class="st1" d="M32.7,21.6c-1.7,0-3.1,1.4-3.1,3.1h0"/>
      <line class="st1" x1="29.7" y1="24.7" x2="29.7" y2="27.1"/>
      <path class="st1" d="M29.6,27c0,1.7,1.4,3.1,3.1,3.1h0"/>
      <line class="st1" x1="60.5" y1="23.1" x2="60.5" y2="24.7"/>
      <line class="st1" x1="28.3" y1="22.6" x2="28.3" y2="24.7"/>
      <line class="st1" x1="129.1" y1="31" x2="129.1" y2="31.6"/>
      <line class="st1" x1="128.1" y1="31.6" x2="128.1" y2="31.6"/>
      <line class="st1" x1="32.8" y1="31.6" x2="56" y2="31.6"/>
      <path class="st1" d="M56,31.6c2.5,0,4.5-2.1,4.5-4.6h0"/>
      <path class="st1" d="M56,30.4c1.9,0,3.4-1.5,3.4-3.4,0,0,0,0,0,0"/>
      <path class="st1" d="M60.5,24.7c0-.7-.2-1.5-.5-2.1"/>
      <polyline class="st1" points="60.5 31.6 60.5 27.1 60.5 24.7"/>
      <path class="st1" d="M29.2,21.9c-.6.8-1,1.8-1,2.8"/>
      <line class="st1" x1="28.3" y1="27.1" x2="28.3" y2="24.7"/>
      <path class="st1" d="M28.2,27c0,2.5,2,4.5,4.5,4.5h0"/>
      <line class="st1" x1="32.8" y1="30.5" x2="56" y2="30.5"/>
      <path class="st1" d="M29.3,27c0,1.9,1.5,3.4,3.4,3.4"/>
      <line class="st1" x1="29.4" y1="27.1" x2="29.4" y2="24.7"/>
      <path class="st1" d="M31.7,21.4c-1.4.4-2.4,1.8-2.4,3.2"/>
      <path class="st1" d="M59.4,24.7c0-1.5-1-2.8-2.4-3.2"/>
      <line class="st1" x1="59.5" y1="27.1" x2="59.5" y2="24.7"/>
      <line class="st1" x1="59.5" y1="30" x2="59.5" y2="31.6"/>
      <line class="st1" x1="28.3" y1="27.1" x2="28.3" y2="31.6"/>
      <line class="st1" x1="29.4" y1="30" x2="29.4" y2="31.6"/>
      <polyline class="st1" points="101.4 31.6 101.3 31.6 101.3 31.5 101.3 31"/>
      <polyline class="st1" points="107.2 31.6 107.3 31.6 107.3 31.5"/>
      <polyline class="st1" points="116.5 31 116.5 31.5 116.5 31.6 116.4 31.6"/>
      <polyline class="st1" points="119.6 31.5 119.6 31.5 119.6 31.6 119.7 31.6"/>
      <line class="st1" x1="118.2" y1="31.2" x2="117.4" y2="31.2"/>
      <line class="st1" x1="116.7" y1="31.2" x2="116.5" y2="31.2"/>
      <line class="st1" x1="101.3" y1="31.2" x2="101.2" y2="31.2"/>
      <line class="st1" x1="100.5" y1="31.2" x2="99.4" y2="31.2"/>
      <line class="st1" x1="95.1" y1="31.2" x2="94.7" y2="31.2"/>
      <line class="st1" x1="91.1" y1="31.2" x2="89.6" y2="31.2"/>
      <g class="st5">
        <text class="st6" transform="translate(28.4 80.7)"><tspan x="0" y="0">T</tspan></text>
        <text class="st9" transform="translate(34.3 80.7)"><tspan x="0" y="0">arget</tspan></text>
      </g>
      <g class="st5">
        <text class="st9" transform="translate(152.4 80.7)"><tspan x="0" y="0">Switchable</tspan></text>
        <text class="st9" transform="translate(151 92.7)"><tspan x="0" y="0">USB-</tspan></text>
        <text class="st7" transform="translate(175.4 92.7)"><tspan x="0" y="0">A</tspan></text>
        <text class="st9" transform="translate(181.7 92.7)"><tspan x="0" y="0" xml:space="preserve"> Port</tspan></text>
        <text class="st4" transform="translate(153 102.7)"><tspan x="0" y="0">(Host /</tspan></text>
        <text class="st2" transform="translate(175.4 102.7)"><tspan x="0" y="0"> </tspan></text>
        <text class="st3" transform="translate(177.3 102.7)"><tspan x="0" y="0">T</tspan></text>
        <text class="st4" transform="translate(181.2 102.7)"><tspan x="0" y="0">arget)</tspan></text>
      </g>
      <g class="st5">
        <text class="st9" transform="translate(98.1 80.7)"><tspan x="0" y="0">HDMI</tspan></text>
        <text class="st9" transform="translate(99.8 90.7)"><tspan x="0" y="0">Input</tspan></text>
      </g>
      <text class="st8" transform="translate(37 65.1)"><tspan x="0" y="0">②</tspan></text>
      <text class="st8" transform="translate(104.1 65.1)"><tspan x="0" y="0">③</tspan></text>
      <text class="st8" transform="translate(169.7 65.1)"><tspan x="0" y="0">④</tspan></text>
      <rect class="st0" y="0" width="226.8" height="119.1"/>
    </g>
  </g>
</svg>